# Created by Metasequoia

v -961.093201 928.347778 -2687.500000
v -961.092896 928.347778 2312.500000
v -887.934204 1296.141724 -2687.500000
v -887.934021 1296.141724 2312.500000
v -679.595154 1607.943481 -2687.500000
v -679.594971 1607.942505 2312.500000
v -367.794128 1816.282349 -2687.500000
v -367.793915 1816.281372 2312.500000
v -0.000120 1889.440674 -2687.500000
v 0.000100 1889.440674 2312.500000
v 367.793915 1816.282349 -2687.500000
v 367.794128 1816.281372 2312.500000
v 679.594910 1607.943481 -2687.500000
v 679.595154 1607.942505 2312.500000
v 887.933899 1296.141724 -2687.500000
v 887.934082 1296.141724 2312.500000
v 961.092896 928.347778 -2687.500000
v 961.093079 928.347778 2312.500000
v 887.933899 560.553833 -2687.500000
v 887.934082 560.553833 2312.500000
v 679.595886 248.753052 -2687.500000
v 679.596130 248.753052 2312.500000
v 367.794891 40.413696 -2687.500000
v 367.795135 40.413696 2312.500000
v -0.000120 -32.744995 -2687.500000
v 0.000100 -32.745483 2312.500000
v -367.795135 40.413696 -2687.500000
v -367.794891 40.413696 2312.500000
v -679.596191 248.753052 -2687.500000
v -679.595947 248.753052 2312.500000
v -887.934204 560.553833 -2687.500000
v -887.934021 560.553833 2312.500000
v -640.729187 928.347778 -3000.000000
v -591.956177 1173.544067 -3000.000000
v -453.064117 1381.411255 -3000.000000
v -245.196152 1520.303833 -3000.000000
v -0.000130 1569.077271 -3000.000000
v 245.195877 1520.303833 -3000.000000
v 453.063873 1381.411255 -3000.000000
v 591.955933 1173.544067 -3000.000000
v 640.728882 928.347778 -3000.000000
v 591.955933 683.151489 -3000.000000
v 453.063873 475.285278 -3000.000000
v 245.195877 336.391724 -3000.000000
v -0.000130 287.619263 -3000.000000
v -245.196152 336.391724 -3000.000000
v -453.064117 475.285278 -3000.000000
v -591.956177 683.151489 -3000.000000
v -739.944824 1234.842896 2937.500000
v -800.910889 928.347778 2937.500000
v -566.328918 1494.676880 2937.500000
v -306.494873 1668.292114 2937.500000
v 0.000130 1729.258911 2937.500000
v 306.495148 1668.292114 2937.500000
v 566.329102 1494.676880 2937.500000
v 739.945190 1234.842896 2937.500000
v 800.911194 928.347778 2937.500000
v 739.945190 621.852661 2937.500000
v 566.330139 362.018677 2937.500000
v 306.495148 188.402466 2937.500000
v 0.000130 127.436646 2937.500000
v -306.494873 188.402466 2937.500000
v -566.329956 362.018677 2937.500000
v -739.944824 621.852661 2937.500000
v -769.919861 928.347778 2937.500000
v -961.092896 928.347778 3000.000000
v -711.312927 1222.983521 2937.500000
v -887.933899 1296.141724 3000.000000
v -544.414856 1472.762817 2937.500000
v -679.594910 1607.942505 3000.000000
v -294.634857 1639.660278 2937.500000
v -367.793915 1816.281372 3000.000000
v 0.000130 1698.267700 2937.500000
v 0.000130 1889.440674 3000.000000
v 294.636139 1639.660278 2937.500000
v 367.794128 1816.281372 3000.000000
v 544.415100 1472.762817 2937.500000
v 679.595154 1607.942505 3000.000000
v 711.313171 1222.983521 2937.500000
v 887.934204 1296.142700 3000.000000
v 769.920105 928.347778 2937.500000
v 961.093201 928.347778 3000.000000
v 711.313171 633.713013 2937.500000
v 887.934204 560.553833 3000.000000
v 544.416138 383.932739 2937.500000
v 679.596191 248.753052 3000.000000
v 294.636139 217.034302 2937.500000
v 367.795135 40.413696 3000.000000
v 0.000130 158.427856 2937.500000
v 0.000130 -32.745483 3000.000000
v -294.635864 217.034302 2937.500000
v -367.794891 40.413696 3000.000000
v -544.415955 383.932739 2937.500000
v -679.595886 248.753052 3000.000000
v -711.312927 633.713013 2937.500000
v -887.933899 560.553833 3000.000000
v -961.092896 928.347778 2937.500000
v -887.933899 1296.141724 2937.500000
v -679.594910 1607.942505 2937.500000
v -367.793915 1816.281372 2937.500000
v 0.000130 1889.440674 2937.500000
v 367.794128 1816.281372 2937.500000
v 679.595154 1607.942505 2937.500000
v 887.934204 1296.142700 2937.500000
v 961.093201 928.347778 2937.500000
v 887.934204 560.553833 2937.500000
v 679.596191 248.753052 2937.500000
v 367.795135 40.413696 2937.500000
v 0.000130 -32.745483 2937.500000
v -367.794891 40.413696 2937.500000
v -679.595886 248.753052 2937.500000
v -887.933899 560.553833 2937.500000
# 112 vertices

vt 0.90945 0.85241
vt 0.80542 0.79793
vt 0.76243 0.92976
vt 0.56250 0.02970
vt 0.51563 0.02970
vt 0.56250 0.03960
vt 0.46875 0.02970
vt 0.51563 0.03960
vt 0.42188 0.02970
vt 0.46875 0.03960
vt 0.37500 0.02970
vt 0.42188 0.03960
vt 0.32813 0.02970
vt 0.37500 0.03960
vt 0.28125 0.02970
vt 0.32813 0.03960
vt 0.23438 0.02970
vt 0.28125 0.03960
vt 0.18750 0.02970
vt 0.23438 0.03960
vt 0.14063 0.02970
vt 0.18750 0.03960
vt 0.09375 0.02970
vt 0.14063 0.03960
vt 0.04688 0.02970
vt 0.09375 0.03960
vt 0.00000 0.02970
vt 0.04688 0.03960
vt 0.75000 0.02970
vt 0.70313 0.02970
vt 0.75000 0.03960
vt 0.65625 0.02970
vt 0.70313 0.03960
vt 0.79041 0.51656
vt 0.79042 0.73097
vt 0.95960 0.73095
vt 0.60938 0.02970
vt 0.65625 0.03960
vt 0.60938 0.03960
vt 0.52030 0.00005
vt 0.55784 0.00005
vt 0.47343 0.00005
vt 0.51097 0.00005
vt 0.42655 0.00005
vt 0.37968 0.00005
vt 0.41723 0.00005
vt 0.33281 0.00005
vt 0.28594 0.00005
vt 0.32348 0.00005
vt 0.23906 0.00005
vt 0.27661 0.00005
vt 0.19219 0.00005
vt 0.22974 0.00005
vt 0.14532 0.00005
vt 0.18287 0.00005
vt 0.09845 0.00005
vt 0.13600 0.00005
vt 0.05158 0.00005
vt 0.08913 0.00005
vt 0.00471 0.00005
vt 0.70778 0.00005
vt 0.74533 0.00005
vt 0.66091 0.00005
vt 0.69846 0.00005
vt 0.61404 0.00005
vt 0.65159 0.00005
vt 0.56717 0.00005
vt 0.60472 0.00005
vt 0.90950 0.92961
vt 0.91553 0.89100
vt 0.86646 0.98424
vt 0.89227 0.96235
vt 0.80554 0.98431
vt 0.83601 0.99195
vt 0.77971 0.96247
vt 0.76238 0.85256
vt 0.75635 0.89117
vt 0.77962 0.81982
vt 0.86634 0.79786
vt 0.83588 0.79022
vt 0.89218 0.81970
vt 0.00000 0.03960
vt 0.98552 0.56573
vt 0.95959 0.51655
vt 0.99463 0.62375
vt 0.98553 0.68177
vt 0.87501 0.77536
vt 0.92079 0.76382
vt 0.82923 0.76383
vt 0.75538 0.62377
vt 0.76449 0.68178
vt 0.76448 0.56575
vt 0.87500 0.47215
vt 0.82922 0.48370
vt 0.92078 0.48369
vt 0.46410 0.00005
vt 0.37036 0.00005
vt 0.04225 0.00005
vt 0.56250 0.10891
vt 0.51563 0.10891
vt 0.56250 0.90099
vt 0.46875 0.10891
vt 0.51563 0.90099
vt 0.42188 0.10891
vt 0.46875 0.90099
vt 0.37500 0.10891
vt 0.42188 0.90099
vt 0.32813 0.10891
vt 0.37500 0.90099
vt 0.28125 0.10891
vt 0.32813 0.90099
vt 0.23438 0.10891
vt 0.28125 0.90099
vt 0.18750 0.10891
vt 0.23438 0.90099
vt 0.14063 0.10891
vt 0.18750 0.90099
vt 0.09375 0.10891
vt 0.14063 0.90099
vt 0.04688 0.10891
vt 0.09375 0.90099
vt 0.00000 0.10891
vt 0.04688 0.90099
vt 0.75000 0.10891
vt 0.70313 0.10891
vt 0.75000 0.90099
vt 0.65625 0.10891
vt 0.70313 0.90099
vt 0.37894 0.99990
vt 0.60938 0.10891
vt 0.65625 0.90099
vt 0.60938 0.90099
vt 0.69530 0.03971
vt 0.50783 0.03971
vt 0.27349 0.03971
vt 0.24225 0.03971
vt 0.03916 0.03971
vt 0.00791 0.03971
vt 0.36723 0.03971
vt 0.13289 0.03971
vt 0.64843 0.03971
vt 0.46096 0.03971
vt 0.22663 0.03971
vt 0.55470 0.03971
vt 0.52345 0.03971
vt 0.74217 0.03971
vt 0.32036 0.03971
vt 0.08603 0.03971
vt 0.60157 0.03971
vt 0.41410 0.03971
vt 0.17976 0.03971
vt 0.14852 0.03971
vt 0.14461 0.99990
vt 0.66015 0.99990
vt 0.47268 0.99990
vt 0.23834 0.99990
vt 0.00000 0.90099
vt 0.00401 0.99990
vt 0.33208 0.99990
vt 0.09774 0.99990
vt 0.61328 0.99990
vt 0.42581 0.99990
vt 0.19148 0.99990
vt 0.51955 0.99990
vt 0.55860 0.99990
vt 0.70701 0.99990
vt 0.74607 0.99990
vt 0.28521 0.99990
vt 0.05088 0.99990
vt 0.56641 0.99990
vt 0.41800 0.99990
vt 0.66405 0.03971
vt 0.47659 0.03971
vt 0.33598 0.03971
vt 0.10165 0.03971
vt 0.61719 0.03971
vt 0.42972 0.03971
vt 0.19538 0.03971
vt 0.71092 0.03971
vt 0.28912 0.03971
vt 0.05478 0.03971
vt 0.57032 0.03971
vt 0.38285 0.03971
vt 0.18367 0.99990
vt 0.69920 0.99990
vt 0.51173 0.99990
vt 0.27740 0.99990
vt 0.04306 0.99990
vt 0.37113 0.99990
vt 0.13680 0.99990
vt 0.65233 0.99990
vt 0.46487 0.99990
vt 0.23053 0.99990
vt 0.32427 0.99990
vt 0.08993 0.99990
vt 0.60547 0.99990
# 196 texture vertices

vn -0.38422 -0.15915 -0.90942
vn 0.15915 -0.38422 -0.90942
vn 0.38423 0.15915 -0.90942
vn -1.00000 -0.00001 0.00000
vn -0.92388 0.38268 0.00000
vn -1.00000 0.00001 0.00000
vn -0.70711 0.70710 0.00000
vn -0.92388 0.38269 0.00000
vn -0.38269 0.92388 0.00000
vn -0.70710 0.70711 0.00000
vn -0.00001 1.00000 0.00000
vn -0.38268 0.92388 0.00000
vn 0.38268 0.92388 0.00000
vn 0.00001 1.00000 0.00000
vn 0.70710 0.70711 0.00000
vn 0.38269 0.92388 0.00000
vn 0.92388 0.38269 0.00000
vn 0.70711 0.70710 0.00000
vn 1.00000 0.00001 0.00000
vn 0.92388 0.38268 0.00000
vn 0.92388 -0.38268 0.00000
vn 1.00000 -0.00001 0.00000
vn 0.70711 -0.70710 0.00000
vn 0.92388 -0.38269 0.00000
vn 0.38269 -0.92388 0.00000
vn 0.70710 -0.70711 0.00000
vn 0.00001 -1.00000 0.00000
vn 0.38268 -0.92388 0.00000
vn -0.38268 -0.92388 0.00000
vn -0.00001 -1.00000 0.00000
vn -0.70710 -0.70711 0.00000
vn -0.38269 -0.92388 0.00000
vn 0.00000 0.00000 1.00000
vn -0.92388 -0.38269 0.00000
vn -0.70711 -0.70710 0.00000
vn -0.92388 -0.38268 0.00000
vn 0.00000 0.00000 -1.00000
vn 0.00000 0.00000 -1.00000
vn -0.38423 0.15915 -0.90942
vn -0.41588 0.00000 -0.90942
vn -0.15915 0.38422 -0.90942
vn -0.29407 0.29407 -0.90942
vn 0.15915 0.38422 -0.90942
vn 0.00000 0.41588 -0.90942
vn 0.29407 0.29407 -0.90942
vn 0.38423 -0.15915 -0.90942
vn 0.41588 0.00000 -0.90942
vn 0.29407 -0.29407 -0.90942
vn -0.15915 -0.38423 -0.90942
vn 0.00000 -0.41589 -0.90942
vn -0.29407 -0.29407 -0.90942
vn 0.00000 0.00000 1.00000
vn -0.92818 -0.00000 -0.37214
vn -0.85752 0.35519 -0.37215
vn -0.99238 -0.00000 0.12323
vn -0.65632 0.65632 -0.37213
vn -0.91684 0.37977 0.12323
vn -0.35520 0.85752 -0.37214
vn -0.70172 0.70172 0.12323
vn -0.00000 0.92818 -0.37214
vn -0.37977 0.91684 0.12323
vn 0.35520 0.85752 -0.37214
vn 0.00000 0.99238 0.12323
vn 0.65632 0.65632 -0.37214
vn 0.37977 0.91684 0.12323
vn 0.85752 0.35520 -0.37215
vn 0.70172 0.70172 0.12323
vn 0.92818 -0.00000 -0.37213
vn 0.91684 0.37977 0.12323
vn 0.85752 -0.35520 -0.37214
vn 0.99238 -0.00000 0.12323
vn 0.65632 -0.65632 -0.37213
vn 0.91684 -0.37976 0.12323
vn 0.35520 -0.85753 -0.37213
vn 0.70172 -0.70171 0.12323
vn -0.00000 -0.92818 -0.37214
vn 0.37977 -0.91684 0.12323
vn -0.35520 -0.85753 -0.37213
vn 0.00000 -0.99238 0.12323
vn -0.65632 -0.65632 -0.37213
vn -0.37977 -0.91684 0.12323
vn 0.00000 0.96869 0.24827
vn -0.85753 -0.35520 -0.37213
vn -0.70172 -0.70172 0.12323
vn -0.91684 -0.37977 0.12323
vn 0.89495 -0.37070 0.24827
vn -0.68497 -0.68497 0.24827
vn -0.68497 0.68497 0.24827
vn 0.89495 0.37070 0.24827
vn -0.00000 -0.96869 0.24827
vn 0.37070 0.89495 0.24827
vn 0.68497 -0.68497 0.24827
vn -0.89495 -0.37070 0.24827
vn -0.37070 0.89495 0.24827
vn 0.96869 -0.00000 0.24827
vn -0.89495 0.37070 0.24827
vn -0.96869 -0.00000 0.24827
vn -0.37070 -0.89495 0.24827
vn 0.68497 0.68497 0.24827
vn 0.37070 -0.89495 0.24827
# 100 normal vertices

g obj1
f 40/3/3 44/2/2 48/1/1
f 66/6/6 98/5/5 97/4/4
f 68/8/8 99/7/7 98/5/5
f 70/10/10 100/9/9 99/7/7
f 72/12/12 101/11/11 100/9/9
f 74/14/14 102/13/13 101/11/11
f 76/16/16 103/15/15 102/13/13
f 78/18/18 104/17/17 103/15/15
f 80/20/20 105/19/19 104/17/17
f 82/22/22 106/21/21 105/19/19
f 84/24/24 107/23/23 106/21/21
f 86/26/26 108/25/25 107/23/23
f 88/28/28 109/27/27 108/25/25
f 90/31/30 110/30/29 109/29/27
f 92/33/32 111/32/31 110/30/29
f 94/36/33 86/35/33 78/34/33
f 94/38/35 112/37/34 111/32/31
f 96/39/36 97/4/4 112/37/34
f 65/41/37 98/5/37 67/40/37
f 67/43/37 99/7/37 69/42/38
f 71/44/38 99/7/37 100/9/37
f 71/46/38 101/11/37 73/45/37
f 75/47/37 101/11/37 102/13/37
f 75/49/37 103/15/38 77/48/37
f 77/51/37 104/17/37 79/50/37
f 79/53/37 105/19/37 81/52/37
f 81/55/37 106/21/37 83/54/37
f 83/57/37 107/23/37 85/56/37
f 85/59/37 108/25/37 87/58/37
f 89/60/37 108/25/37 109/27/37
f 89/62/37 110/30/37 91/61/37
f 91/64/37 111/32/37 93/63/38
f 93/66/38 112/37/37 95/65/37
f 95/68/37 97/4/37 65/67/37
f 48/1/1 33/70/40 34/69/39
f 34/69/39 35/72/42 36/71/41
f 36/71/41 37/74/44 38/73/43
f 38/73/43 39/75/45 40/3/3
f 40/3/3 41/77/47 42/76/46
f 42/76/46 43/78/48 40/3/3
f 43/78/48 44/2/2 40/3/3
f 44/2/2 45/80/50 46/79/49
f 46/79/49 47/81/51 48/1/1
f 48/1/1 34/69/39 36/71/41
f 36/71/41 38/73/43 48/1/1
f 38/73/43 40/3/3 48/1/1
f 44/2/2 46/79/49 48/1/1
f 66/6/6 68/8/8 98/5/5
f 68/8/8 70/10/10 99/7/7
f 70/10/10 72/12/12 100/9/9
f 72/12/12 74/14/14 101/11/11
f 74/14/14 76/16/16 102/13/13
f 76/16/16 78/18/18 103/15/15
f 78/18/18 80/20/20 104/17/17
f 80/20/20 82/22/22 105/19/19
f 82/22/22 84/24/24 106/21/21
f 84/24/24 86/26/26 107/23/23
f 86/26/26 88/28/28 108/25/25
f 88/28/28 90/82/30 109/27/27
f 90/31/30 92/33/32 110/30/29
f 92/33/32 94/38/35 111/32/31
f 70/84/33 68/83/33 94/36/33
f 68/83/33 66/85/52 94/36/33
f 66/85/52 96/86/33 94/36/33
f 94/36/33 92/88/33 90/87/33
f 90/87/33 88/89/33 86/35/33
f 86/35/33 84/91/33 82/90/33
f 82/90/33 80/92/33 78/34/33
f 78/34/33 76/94/33 74/93/33
f 74/93/33 72/95/33 70/84/33
f 94/36/33 90/87/33 86/35/33
f 86/35/33 82/90/33 78/34/33
f 78/34/33 74/93/33 70/84/33
f 70/84/33 94/36/33 78/34/33
f 94/38/35 96/39/36 112/37/34
f 96/39/36 66/6/6 97/4/4
f 65/41/37 97/4/37 98/5/37
f 67/43/37 98/5/37 99/7/37
f 71/44/38 69/96/38 99/7/37
f 71/46/38 100/9/37 101/11/37
f 75/47/37 73/97/37 101/11/37
f 75/49/37 102/13/37 103/15/38
f 77/51/37 103/15/38 104/17/37
f 79/53/37 104/17/37 105/19/37
f 81/55/37 105/19/37 106/21/37
f 83/57/37 106/21/37 107/23/37
f 85/59/37 107/23/37 108/25/37
f 89/60/37 87/98/37 108/25/37
f 89/62/37 109/29/37 110/30/37
f 91/64/37 110/30/37 111/32/37
f 93/66/38 111/32/37 112/37/37
f 95/68/37 112/37/37 97/4/37
f 2/101/55 3/100/54 1/99/53
f 4/103/57 5/102/56 3/100/54
f 6/105/59 7/104/58 5/102/56
f 8/107/61 9/106/60 7/104/58
f 10/109/63 11/108/62 9/106/60
f 12/111/65 13/110/64 11/108/62
f 14/113/67 15/112/66 13/110/64
f 16/115/69 17/114/68 15/112/66
f 18/117/71 19/116/70 17/114/68
f 20/119/73 21/118/72 19/116/70
f 22/121/75 23/120/74 21/118/72
f 24/123/77 25/122/76 23/120/74
f 26/126/79 27/125/78 25/124/76
f 28/128/81 29/127/80 27/125/78
f 8/107/61 53/129/82 10/109/63
f 30/131/84 31/130/83 29/127/80
f 32/132/85 1/99/53 31/130/83
f 29/127/80 46/133/49 27/125/78
f 5/102/56 34/134/39 3/100/54
f 13/110/64 40/136/3 39/135/45
f 23/120/74 45/138/50 44/137/2
f 11/108/62 37/139/44 9/106/60
f 21/118/72 42/140/46 19/116/70
f 31/130/83 47/141/51 29/127/80
f 7/104/58 35/142/42 5/102/56
f 17/114/68 40/143/3 15/112/66
f 1/99/53 34/145/39 33/144/40
f 27/125/78 45/146/50 25/124/76
f 13/110/64 38/147/43 11/108/62
f 23/120/74 43/148/48 21/118/72
f 1/99/53 48/149/1 31/130/83
f 9/106/60 36/150/41 7/104/58
f 17/114/68 42/152/46 41/151/47
f 18/117/71 58/153/86 20/119/73
f 28/128/81 63/154/87 30/131/84
f 4/103/57 51/155/88 6/105/59
f 14/113/67 56/156/89 16/115/69
f 24/123/77 61/158/90 26/157/79
f 10/109/63 54/159/91 12/111/65
f 20/119/73 59/160/92 22/121/75
f 30/131/84 64/161/93 32/132/85
f 6/105/59 52/162/94 8/107/61
f 16/115/69 57/163/95 18/117/71
f 4/103/57 50/165/97 49/164/96
f 28/128/81 61/167/90 62/166/98
f 12/111/65 55/168/99 14/113/67
f 22/121/75 60/169/100 24/123/77
f 32/132/85 50/170/97 2/101/55
f 2/101/55 4/103/57 3/100/54
f 4/103/57 6/105/59 5/102/56
f 6/105/59 8/107/61 7/104/58
f 8/107/61 10/109/63 9/106/60
f 10/109/63 12/111/65 11/108/62
f 12/111/65 14/113/67 13/110/64
f 14/113/67 16/115/69 15/112/66
f 16/115/69 18/117/71 17/114/68
f 18/117/71 20/119/73 19/116/70
f 20/119/73 22/121/75 21/118/72
f 22/121/75 24/123/77 23/120/74
f 24/123/77 26/157/79 25/122/76
f 26/126/79 28/128/81 27/125/78
f 28/128/81 30/131/84 29/127/80
f 8/107/61 52/171/94 53/129/82
f 30/131/84 32/132/85 31/130/83
f 32/132/85 2/101/55 1/99/53
f 29/127/80 47/172/51 46/133/49
f 5/102/56 35/173/42 34/134/39
f 13/110/64 15/112/66 40/136/3
f 23/120/74 25/122/76 45/138/50
f 11/108/62 38/174/43 37/139/44
f 21/118/72 43/175/48 42/140/46
f 31/130/83 48/176/1 47/141/51
f 7/104/58 36/177/41 35/142/42
f 17/114/68 41/178/47 40/143/3
f 1/99/53 3/100/54 34/145/39
f 27/125/78 46/179/49 45/146/50
f 13/110/64 39/180/45 38/147/43
f 23/120/74 44/181/2 43/148/48
f 1/99/53 33/182/40 48/149/1
f 9/106/60 37/183/44 36/150/41
f 17/114/68 19/116/70 42/152/46
f 18/117/71 57/184/95 58/153/86
f 28/128/81 62/185/98 63/154/87
f 4/103/57 49/186/96 51/155/88
f 14/113/67 55/187/99 56/156/89
f 24/123/77 60/188/100 61/158/90
f 10/109/63 53/189/82 54/159/91
f 20/119/73 58/190/86 59/160/92
f 30/131/84 63/191/87 64/161/93
f 6/105/59 51/192/88 52/162/94
f 16/115/69 56/193/89 57/163/95
f 4/103/57 2/101/55 50/165/97
f 28/128/81 26/126/79 61/167/90
f 12/111/65 54/194/91 55/168/99
f 22/121/75 59/195/92 60/169/100
f 32/132/85 64/196/93 50/170/97
# 188 elements

