# Created by Metasequoia

v 4.896977 0.012279 0.000000
v 4.896977 0.012279 -0.536870
v 4.898188 -0.099335 -0.525138
v 4.899345 -0.206070 -0.490455
v 4.900398 -0.303263 -0.434337
v 4.901304 -0.386664 -0.359236
v 4.902022 -0.452630 -0.268435
v 4.902515 -0.498278 -0.165902
v 4.902770 -0.521611 -0.056118
v 4.902770 -0.521611 0.056118
v 4.902515 -0.498278 0.165902
v 4.902020 -0.452630 0.268435
v 4.901304 -0.386664 0.359236
v 4.900398 -0.303263 0.434337
v 4.899343 -0.206070 0.490455
v 4.898188 -0.099335 0.525137
v 4.896977 0.012279 0.536869
v 4.895767 0.123892 0.525137
v 4.894607 0.230627 0.490454
v 4.893555 0.327820 0.434336
v 4.892650 0.411222 0.359236
v 4.891932 0.477188 0.268435
v 4.891433 0.522834 0.165902
v 4.891183 0.546168 0.056118
v 4.891182 0.546168 -0.056118
v 4.891433 0.522834 -0.165902
v 4.891932 0.477188 -0.268435
v 4.892649 0.411222 -0.359236
v 4.893555 0.327820 -0.434337
v 4.894607 0.230628 -0.490455
v 4.895767 0.123893 -0.525138
v 4.892606 0.012268 -0.560177
v 4.893867 -0.104190 -0.547935
v 4.895073 -0.215559 -0.511747
v 4.896172 -0.316971 -0.453192
v 4.897119 -0.403993 -0.374831
v 4.897868 -0.472824 -0.280088
v 4.898385 -0.520452 -0.173104
v 4.898646 -0.544799 -0.058555
v 4.898646 -0.544799 0.058554
v 4.898385 -0.520452 0.173104
v 4.897868 -0.472823 0.280088
v 4.897119 -0.403993 0.374831
v 4.896172 -0.316971 0.453192
v 4.895073 -0.215559 0.511746
v 4.893867 -0.104190 0.547935
v 4.892606 0.012268 0.560176
v 4.891337 0.128727 0.547935
v 4.890129 0.240096 0.511746
v 4.889030 0.341508 0.453192
v 4.888086 0.428530 0.374831
v 4.887340 0.497360 0.280088
v 4.886824 0.544988 0.173104
v 4.886558 0.569335 0.058554
v 4.886558 0.569335 -0.058554
v 4.886824 0.544989 -0.173104
v 4.887340 0.497360 -0.280088
v 4.888084 0.428530 -0.374831
v 4.889030 0.341508 -0.453192
v 4.890129 0.240097 -0.511746
v 4.891337 0.128728 -0.547935
v 4.879617 0.012238 -0.582775
v 4.880929 -0.108919 -0.570040
v 4.882186 -0.224781 -0.532391
v 4.883330 -0.330284 -0.471475
v 4.884314 -0.420817 -0.389953
v 4.885090 -0.492423 -0.291388
v 4.885629 -0.541974 -0.180087
v 4.885665 -0.632946 -0.067685
v 4.885665 -0.632946 0.067685
v 4.885629 -0.541974 0.180087
v 4.885090 -0.492423 0.291387
v 4.884314 -0.420817 0.389952
v 4.883330 -0.330283 0.471474
v 4.882186 -0.224781 0.532391
v 4.880929 -0.108919 0.570039
v 4.879617 0.012238 0.582774
v 4.878300 0.133395 0.570039
v 4.877043 0.249256 0.532391
v 4.875896 0.354759 0.471474
v 4.874917 0.445292 0.389952
v 4.874142 0.516899 0.291387
v 4.873604 0.566449 0.180087
v 4.873333 0.591778 0.060917
v 4.873333 0.591778 -0.060916
v 4.873605 0.566449 -0.180087
v 4.874144 0.516899 -0.291387
v 4.874917 0.445293 -0.389952
v 4.875897 0.354760 -0.471474
v 4.877041 0.249257 -0.532391
v 4.878300 0.133396 -0.570040
v 4.855118 0.010932 -0.671087
v 4.856628 -0.128585 -0.656422
v 4.858081 -0.262004 -0.613069
v 4.859397 -0.383494 -0.542921
v 4.860527 -0.487747 -0.449045
v 4.861423 -0.570204 -0.335544
v 4.862039 -0.627263 -0.207378
v 4.862355 -0.656430 -0.070148
v 4.862355 -0.656430 0.070148
v 4.862039 -0.627263 0.207377
v 4.861423 -0.570204 0.335543
v 4.860527 -0.487747 0.449045
v 4.859393 -0.383494 0.542921
v 4.858078 -0.262004 0.613068
v 4.856628 -0.128585 0.656422
v 4.855118 0.010932 0.671087
v 4.853601 0.150449 0.656422
v 4.852157 0.283868 0.613068
v 4.850837 0.405358 0.542921
v 4.849709 0.509610 0.449045
v 4.848813 0.592068 0.335543
v 4.848193 0.649127 0.207377
v 4.847879 0.678294 0.070148
v 4.847879 0.678295 -0.070148
v 4.848196 0.649127 -0.207377
v 4.848812 0.592069 -0.335543
v 4.849709 0.509611 -0.449045
v 4.850837 0.405359 -0.542920
v 4.852154 0.283869 -0.613068
v 4.853603 0.150450 -0.656422
v 4.817251 0.010848 -0.769313
v 4.818989 -0.149089 -0.752501
v 4.820644 -0.302037 -0.702802
v 4.822157 -0.441309 -0.622387
v 4.823451 -0.560821 -0.514771
v 4.824480 -0.655347 -0.384656
v 4.825186 -0.720758 -0.237731
v 4.825554 -0.754194 -0.080415
v 4.825554 -0.754194 0.080415
v 4.825186 -0.720758 0.237730
v 4.824480 -0.655347 0.384656
v 4.823451 -0.560821 0.514770
v 4.822157 -0.441309 0.622387
v 4.820644 -0.302037 0.702801
v 4.818989 -0.149089 0.752501
v 4.817251 0.010848 0.769312
v 4.815513 0.170785 0.752501
v 4.813854 0.323733 0.702801
v 4.812346 0.463006 0.622387
v 4.811046 0.582517 0.514770
v 4.810022 0.677044 0.384656
v 4.809316 0.742454 0.237730
v 4.808950 0.775891 0.080415
v 4.808950 0.775891 -0.080415
v 4.809316 0.742454 -0.237730
v 4.810022 0.677045 -0.384656
v 4.811047 0.582517 -0.514770
v 4.812350 0.463007 -0.622386
v 4.813856 0.323734 -0.702801
v 4.815513 0.170787 -0.752501
v 4.764024 0.010733 -0.877485
v 4.766004 -0.171693 -0.858310
v 4.767898 -0.346146 -0.801622
v 4.769623 -0.505002 -0.709900
v 4.771098 -0.641317 -0.587152
v 4.772267 -0.749135 -0.438742
v 4.773077 -0.823744 -0.271158
v 4.773495 -0.861881 -0.091722
v 4.773495 -0.861881 0.091722
v 4.773077 -0.823744 0.271157
v 4.772267 -0.749135 0.438742
v 4.771100 -0.641317 0.587152
v 4.769623 -0.505002 0.709900
v 4.767897 -0.346146 0.801622
v 4.766004 -0.171693 0.858309
v 4.764024 0.010733 0.877484
v 4.762047 0.193159 0.858309
v 4.760154 0.367612 0.801622
v 4.758432 0.526468 0.709900
v 4.756952 0.662784 0.587151
v 4.755783 0.770602 0.438742
v 4.754974 0.845210 0.271158
v 4.754557 0.883347 0.091722
v 4.754557 0.883347 -0.091722
v 4.754974 0.845210 -0.271157
v 4.755783 0.770602 -0.438742
v 4.756951 0.662784 -0.587151
v 4.758430 0.526470 -0.709899
v 4.760156 0.367614 -0.801622
v 4.762048 0.193161 -0.858309
v 4.693630 0.010586 -0.995436
v 4.695877 -0.196362 -0.973683
v 4.698023 -0.394265 -0.909376
v 4.699974 -0.574474 -0.805325
v 4.701652 -0.729112 -0.666077
v 4.702981 -0.851425 -0.497718
v 4.703899 -0.936061 -0.307607
v 4.704367 -0.979324 -0.104052
v 4.704367 -0.979324 0.104051
v 4.703899 -0.936062 0.307606
v 4.702981 -0.851425 0.497718
v 4.701652 -0.729112 0.666076
v 4.699974 -0.574474 0.805324
v 4.698023 -0.394265 0.909376
v 4.695877 -0.196362 0.973683
v 4.693630 0.010586 0.995436
v 4.691378 0.217533 0.973683
v 4.689231 0.415436 0.909376
v 4.687274 0.595645 0.805324
v 4.685599 0.750285 0.666076
v 4.684271 0.872595 0.497718
v 4.683355 0.957232 0.307606
v 4.682886 1.000497 0.104052
v 4.682886 1.000497 -0.104051
v 4.683354 0.957233 -0.307606
v 4.684271 0.872596 -0.497717
v 4.685599 0.750286 -0.666076
v 4.687276 0.595646 -0.805324
v 4.689230 0.415438 -0.909375
v 4.691381 0.217535 -0.973683
v 4.604533 0.010404 -1.122784
v 4.607064 -0.223019 -1.098249
v 4.609487 -0.446240 -1.025715
v 4.611698 -0.649504 -0.908352
v 4.613585 -0.823927 -0.751289
v 4.615078 -0.961885 -0.561392
v 4.616116 -1.057349 -0.346960
v 4.616648 -1.106149 -0.117363
v 4.616648 -1.106149 0.117363
v 4.616116 -1.057349 0.346959
v 4.615078 -0.961885 0.561392
v 4.613585 -0.823927 0.751289
v 4.611698 -0.649504 0.908351
v 4.609487 -0.446240 1.025714
v 4.607064 -0.223019 1.098248
v 4.604533 0.010404 1.122784
v 4.601999 0.243827 1.098248
v 4.599576 0.467048 1.025714
v 4.597370 0.670312 0.908351
v 4.595479 0.844734 0.751289
v 4.593981 0.982693 0.561392
v 4.592943 1.078157 0.346959
v 4.592420 1.126957 0.117363
v 4.592420 1.126957 -0.117362
v 4.592945 1.078158 -0.346959
v 4.593981 0.982693 -0.561391
v 4.595479 0.844735 -0.751288
v 4.597370 0.670313 -0.908351
v 4.599576 0.467050 -1.025714
v 4.601999 0.243829 -1.098248
v 4.495640 0.010189 -1.258932
v 4.498477 -0.251539 -1.231422
v 4.501195 -0.501828 -1.150092
v 4.503667 -0.729739 -1.018498
v 4.505787 -0.925313 -0.842390
v 4.507466 -1.079999 -0.629466
v 4.508629 -1.187039 -0.389032
v 4.509221 -1.241756 -0.131594
v 4.509221 -1.241756 0.131594
v 4.508629 -1.187039 0.389031
v 4.507466 -1.079999 0.629466
v 4.505787 -0.925313 0.842390
v 4.503667 -0.729739 1.018497
v 4.501196 -0.501828 1.150091
v 4.498477 -0.251539 1.231421
v 4.495640 0.010189 1.258932
v 4.492799 0.271916 1.231421
v 4.490086 0.522205 1.150091
v 4.487612 0.750117 1.018497
v 4.485490 0.945690 0.842390
v 4.483814 1.100376 0.629466
v 4.482649 1.207417 0.389031
v 4.482059 1.262133 0.131594
v 4.482059 1.262133 -0.131594
v 4.482649 1.207418 -0.389031
v 4.483811 1.100376 -0.629465
v 4.485490 0.945691 -0.842389
v 4.487612 0.750119 -1.018497
v 4.490084 0.522207 -1.150091
v 4.492799 0.271918 -1.231421
v 4.366409 0.009942 -1.403077
v 4.369579 -0.281752 -1.372416
v 4.372600 -0.560699 -1.281774
v 4.375357 -0.814705 -1.135113
v 4.377722 -1.032671 -0.938842
v 4.379593 -1.205070 -0.701538
v 4.380888 -1.324366 -0.433575
v 4.381550 -1.385347 -0.146662
v 4.381550 -1.385347 0.146661
v 4.380888 -1.324366 0.433574
v 4.379594 -1.205070 0.701538
v 4.377722 -1.032671 0.938841
v 4.375356 -0.814705 1.135113
v 4.372600 -0.560699 1.281774
v 4.369580 -0.281752 1.372416
v 4.366411 0.009942 1.403076
v 4.363246 0.301637 1.372416
v 4.360217 0.580584 1.281774
v 4.357461 0.834590 1.135112
v 4.355102 1.052555 0.938841
v 4.353231 1.224955 0.701538
v 4.351935 1.344250 0.433574
v 4.351271 1.405231 0.146662
v 4.351271 1.405231 -0.146661
v 4.351935 1.344250 -0.433574
v 4.353230 1.224956 -0.701537
v 4.355103 1.052556 -0.938840
v 4.357464 0.834592 -1.135112
v 4.360217 0.580586 -1.281774
v 4.363245 0.301640 -1.372416
v 3.968216 0.003314 -1.558974
v 3.971734 -0.320791 -1.524907
v 3.975098 -0.630731 -1.424194
v 3.978156 -0.912961 -1.261237
v 3.980785 -1.155144 -1.043157
v 3.982865 -1.346698 -0.779487
v 3.984304 -1.479250 -0.481750
v 3.985036 -1.547006 -0.162957
v 3.985036 -1.547006 0.162957
v 3.984304 -1.479250 0.481749
v 3.982865 -1.346698 0.779487
v 3.980785 -1.155144 1.043157
v 3.978156 -0.912961 1.261237
v 3.975098 -0.630731 1.424194
v 3.971734 -0.320791 1.524907
v 3.968217 0.003314 1.558974
v 3.964701 0.327420 1.524907
v 3.961338 0.637360 1.424194
v 3.958275 0.919589 1.261237
v 3.955650 1.161774 1.043157
v 3.953570 1.353326 0.779487
v 3.952134 1.485879 0.481750
v 3.951398 1.553634 0.162958
v 3.951398 1.553635 -0.162956
v 3.952133 1.485880 -0.481748
v 3.953569 1.353327 -0.779486
v 3.955649 1.161775 -1.043156
v 3.958275 0.919591 -1.261235
v 3.961338 0.637362 -1.424192
v 3.964700 0.327423 -1.524906
v -0.002608 -0.003314 -1.558974
v -0.002602 -0.327420 -1.524907
v -0.002596 -0.637360 -1.424194
v -0.002590 -0.919589 -1.261237
v -0.002585 -1.161774 -1.043157
v -0.002581 -1.353326 -0.779487
v -0.002579 -1.485879 -0.481749
v -0.002577 -1.553635 -0.162957
v -0.002577 -1.553635 0.162957
v -0.002579 -1.485879 0.481750
v -0.002581 -1.353326 0.779487
v -0.002585 -1.161774 1.043157
v -0.002590 -0.919589 1.261237
v -0.002596 -0.637360 1.424194
v -0.002602 -0.327419 1.524907
v -0.002608 -0.003314 1.558974
v -0.002615 0.320791 1.524907
v -0.002621 0.630731 1.424194
v -0.002627 0.912961 1.261237
v -0.002632 1.155144 1.043157
v -0.002636 1.346698 0.779487
v -0.002638 1.479250 0.481750
v -0.002640 1.547006 0.162958
v -0.002640 1.547006 -0.162956
v -0.002638 1.479250 -0.481748
v -0.002636 1.346699 -0.779486
v -0.002632 1.155146 -1.043156
v -0.002627 0.912963 -1.261235
v -0.002621 0.630734 -1.424192
v -0.002615 0.320794 -1.524906
v -4.896977 0.012279 0.000000
v -4.896977 0.012279 -0.536870
v -4.898188 -0.099335 -0.525138
v -4.899345 -0.206070 -0.490455
v -4.900398 -0.303263 -0.434337
v -4.901304 -0.386664 -0.359236
v -4.902022 -0.452630 -0.268435
v -4.902515 -0.498278 -0.165902
v -4.902770 -0.521611 -0.056118
v -4.902770 -0.521611 0.056118
v -4.902515 -0.498278 0.165902
v -4.902020 -0.452630 0.268435
v -4.901304 -0.386664 0.359236
v -4.900398 -0.303263 0.434337
v -4.899343 -0.206070 0.490455
v -4.898188 -0.099335 0.525137
v -4.896977 0.012279 0.536869
v -4.895767 0.123892 0.525137
v -4.894607 0.230627 0.490454
v -4.893555 0.327820 0.434336
v -4.892650 0.411222 0.359236
v -4.891932 0.477188 0.268435
v -4.891433 0.522834 0.165902
v -4.891183 0.546168 0.056118
v -4.891182 0.546168 -0.056118
v -4.891433 0.522834 -0.165902
v -4.891932 0.477188 -0.268435
v -4.892649 0.411222 -0.359236
v -4.893555 0.327820 -0.434337
v -4.894607 0.230628 -0.490455
v -4.895767 0.123893 -0.525138
v -4.892606 0.012268 -0.560177
v -4.893867 -0.104190 -0.547935
v -4.895073 -0.215559 -0.511747
v -4.896172 -0.316971 -0.453192
v -4.897119 -0.403993 -0.374831
v -4.897868 -0.472824 -0.280088
v -4.898385 -0.520452 -0.173104
v -4.898646 -0.544799 -0.058555
v -4.898646 -0.544799 0.058554
v -4.898385 -0.520452 0.173104
v -4.897868 -0.472823 0.280088
v -4.897119 -0.403993 0.374831
v -4.896172 -0.316971 0.453192
v -4.895073 -0.215559 0.511746
v -4.893867 -0.104190 0.547935
v -4.892606 0.012268 0.560176
v -4.891337 0.128727 0.547935
v -4.890129 0.240096 0.511746
v -4.889030 0.341508 0.453192
v -4.888086 0.428530 0.374831
v -4.887340 0.497360 0.280088
v -4.886824 0.544988 0.173104
v -4.886558 0.569335 0.058554
v -4.886558 0.569335 -0.058554
v -4.886824 0.544989 -0.173104
v -4.887340 0.497360 -0.280088
v -4.888084 0.428530 -0.374831
v -4.889030 0.341508 -0.453192
v -4.890129 0.240097 -0.511746
v -4.891337 0.128728 -0.547935
v -4.879617 0.012238 -0.582775
v -4.880929 -0.108919 -0.570040
v -4.882186 -0.224781 -0.532391
v -4.883330 -0.330284 -0.471475
v -4.884314 -0.420817 -0.389953
v -4.885090 -0.492423 -0.291388
v -4.885629 -0.541974 -0.180087
v -4.885665 -0.632946 -0.067685
v -4.885665 -0.632946 0.067685
v -4.885629 -0.541974 0.180087
v -4.885090 -0.492423 0.291387
v -4.884314 -0.420817 0.389952
v -4.883330 -0.330283 0.471474
v -4.882186 -0.224781 0.532391
v -4.880929 -0.108919 0.570039
v -4.879617 0.012238 0.582774
v -4.878300 0.133395 0.570039
v -4.877043 0.249256 0.532391
v -4.875896 0.354759 0.471474
v -4.874917 0.445292 0.389952
v -4.874142 0.516899 0.291387
v -4.873604 0.566449 0.180087
v -4.873333 0.591778 0.060917
v -4.873333 0.591778 -0.060916
v -4.873605 0.566449 -0.180087
v -4.874144 0.516899 -0.291387
v -4.874917 0.445293 -0.389952
v -4.875897 0.354760 -0.471474
v -4.877041 0.249257 -0.532391
v -4.878300 0.133396 -0.570040
v -4.855118 0.010932 -0.671087
v -4.856628 -0.128585 -0.656422
v -4.858081 -0.262004 -0.613069
v -4.859397 -0.383494 -0.542921
v -4.860527 -0.487747 -0.449045
v -4.861423 -0.570204 -0.335544
v -4.862039 -0.627263 -0.207378
v -4.862355 -0.656430 -0.070148
v -4.862355 -0.656430 0.070148
v -4.862039 -0.627263 0.207377
v -4.861423 -0.570204 0.335543
v -4.860527 -0.487747 0.449045
v -4.859393 -0.383494 0.542921
v -4.858078 -0.262004 0.613068
v -4.856628 -0.128585 0.656422
v -4.855118 0.010932 0.671087
v -4.853601 0.150449 0.656422
v -4.852157 0.283868 0.613068
v -4.850837 0.405358 0.542921
v -4.849709 0.509610 0.449045
v -4.848813 0.592068 0.335543
v -4.848193 0.649127 0.207377
v -4.847879 0.678294 0.070148
v -4.847879 0.678295 -0.070148
v -4.848196 0.649127 -0.207377
v -4.848812 0.592069 -0.335543
v -4.849709 0.509611 -0.449045
v -4.850837 0.405359 -0.542920
v -4.852154 0.283869 -0.613068
v -4.853603 0.150450 -0.656422
v -4.817251 0.010848 -0.769313
v -4.818989 -0.149089 -0.752501
v -4.820644 -0.302037 -0.702802
v -4.822157 -0.441309 -0.622387
v -4.823451 -0.560821 -0.514771
v -4.824480 -0.655347 -0.384656
v -4.825186 -0.720758 -0.237731
v -4.825554 -0.754194 -0.080415
v -4.825554 -0.754194 0.080415
v -4.825186 -0.720758 0.237730
v -4.824480 -0.655347 0.384656
v -4.823451 -0.560821 0.514770
v -4.822157 -0.441309 0.622387
v -4.820644 -0.302037 0.702801
v -4.818989 -0.149089 0.752501
v -4.817251 0.010848 0.769312
v -4.815513 0.170785 0.752501
v -4.813854 0.323733 0.702801
v -4.812346 0.463006 0.622387
v -4.811046 0.582517 0.514770
v -4.810022 0.677044 0.384656
v -4.809316 0.742454 0.237730
v -4.808950 0.775891 0.080415
v -4.808950 0.775891 -0.080415
v -4.809316 0.742454 -0.237730
v -4.810022 0.677045 -0.384656
v -4.811047 0.582517 -0.514770
v -4.812350 0.463007 -0.622386
v -4.813856 0.323734 -0.702801
v -4.815513 0.170787 -0.752501
v -4.764024 0.010733 -0.877485
v -4.766004 -0.171693 -0.858310
v -4.767898 -0.346146 -0.801622
v -4.769623 -0.505002 -0.709900
v -4.771098 -0.641317 -0.587152
v -4.772267 -0.749135 -0.438742
v -4.773077 -0.823744 -0.271158
v -4.773495 -0.861881 -0.091722
v -4.773495 -0.861881 0.091722
v -4.773077 -0.823744 0.271157
v -4.772267 -0.749135 0.438742
v -4.771100 -0.641317 0.587152
v -4.769623 -0.505002 0.709900
v -4.767897 -0.346146 0.801622
v -4.766004 -0.171693 0.858309
v -4.764024 0.010733 0.877484
v -4.762047 0.193159 0.858309
v -4.760154 0.367612 0.801622
v -4.758432 0.526468 0.709900
v -4.756952 0.662784 0.587151
v -4.755783 0.770602 0.438742
v -4.754974 0.845210 0.271158
v -4.754557 0.883347 0.091722
v -4.754557 0.883347 -0.091722
v -4.754974 0.845210 -0.271157
v -4.755783 0.770602 -0.438742
v -4.756951 0.662784 -0.587151
v -4.758430 0.526470 -0.709899
v -4.760156 0.367614 -0.801622
v -4.762048 0.193161 -0.858309
v -4.693630 0.010586 -0.995436
v -4.695877 -0.196362 -0.973683
v -4.698023 -0.394265 -0.909376
v -4.699974 -0.574474 -0.805325
v -4.701652 -0.729112 -0.666077
v -4.702981 -0.851425 -0.497718
v -4.703899 -0.936061 -0.307607
v -4.704367 -0.979324 -0.104052
v -4.704367 -0.979324 0.104051
v -4.703899 -0.936062 0.307606
v -4.702981 -0.851425 0.497718
v -4.701652 -0.729112 0.666076
v -4.699974 -0.574474 0.805324
v -4.698023 -0.394265 0.909376
v -4.695877 -0.196362 0.973683
v -4.693630 0.010586 0.995436
v -4.691378 0.217533 0.973683
v -4.689231 0.415436 0.909376
v -4.687274 0.595645 0.805324
v -4.685599 0.750285 0.666076
v -4.684271 0.872595 0.497718
v -4.683355 0.957232 0.307606
v -4.682886 1.000497 0.104052
v -4.682886 1.000497 -0.104051
v -4.683354 0.957233 -0.307606
v -4.684271 0.872596 -0.497717
v -4.685599 0.750286 -0.666076
v -4.687276 0.595646 -0.805324
v -4.689230 0.415438 -0.909375
v -4.691381 0.217535 -0.973683
v -4.604533 0.010404 -1.122784
v -4.607064 -0.223019 -1.098249
v -4.609487 -0.446240 -1.025715
v -4.611698 -0.649504 -0.908352
v -4.613585 -0.823927 -0.751289
v -4.615078 -0.961885 -0.561392
v -4.616116 -1.057349 -0.346960
v -4.616648 -1.106149 -0.117363
v -4.616648 -1.106149 0.117363
v -4.616116 -1.057349 0.346959
v -4.615078 -0.961885 0.561392
v -4.613585 -0.823927 0.751289
v -4.611698 -0.649504 0.908351
v -4.609487 -0.446240 1.025714
v -4.607064 -0.223019 1.098248
v -4.604533 0.010404 1.122784
v -4.601999 0.243827 1.098248
v -4.599576 0.467048 1.025714
v -4.597370 0.670312 0.908351
v -4.595479 0.844734 0.751289
v -4.593981 0.982693 0.561392
v -4.592943 1.078157 0.346959
v -4.592420 1.126957 0.117363
v -4.592420 1.126957 -0.117362
v -4.592945 1.078158 -0.346959
v -4.593981 0.982693 -0.561391
v -4.595479 0.844735 -0.751288
v -4.597370 0.670313 -0.908351
v -4.599576 0.467050 -1.025714
v -4.601999 0.243829 -1.098248
v -4.495640 0.010189 -1.258932
v -4.498477 -0.251539 -1.231422
v -4.501195 -0.501828 -1.150092
v -4.503667 -0.729739 -1.018498
v -4.505787 -0.925313 -0.842390
v -4.507466 -1.079999 -0.629466
v -4.508629 -1.187039 -0.389032
v -4.509221 -1.241756 -0.131594
v -4.509221 -1.241756 0.131594
v -4.508629 -1.187039 0.389031
v -4.507466 -1.079999 0.629466
v -4.505787 -0.925313 0.842390
v -4.503667 -0.729739 1.018497
v -4.501196 -0.501828 1.150091
v -4.498477 -0.251539 1.231421
v -4.495640 0.010189 1.258932
v -4.492799 0.271916 1.231421
v -4.490086 0.522205 1.150091
v -4.487612 0.750117 1.018497
v -4.485490 0.945690 0.842390
v -4.483814 1.100376 0.629466
v -4.482649 1.207417 0.389031
v -4.482059 1.262133 0.131594
v -4.482059 1.262133 -0.131594
v -4.482649 1.207418 -0.389031
v -4.483811 1.100376 -0.629465
v -4.485490 0.945691 -0.842389
v -4.487612 0.750119 -1.018497
v -4.490084 0.522207 -1.150091
v -4.492799 0.271918 -1.231421
v -4.366409 0.009942 -1.403077
v -4.369579 -0.281752 -1.372416
v -4.372600 -0.560699 -1.281774
v -4.375357 -0.814705 -1.135113
v -4.377722 -1.032671 -0.938842
v -4.379593 -1.205070 -0.701538
v -4.380888 -1.324366 -0.433575
v -4.381550 -1.385347 -0.146662
v -4.381550 -1.385347 0.146661
v -4.380888 -1.324366 0.433574
v -4.379594 -1.205070 0.701538
v -4.377722 -1.032671 0.938841
v -4.375356 -0.814705 1.135113
v -4.372600 -0.560699 1.281774
v -4.369580 -0.281752 1.372416
v -4.366411 0.009942 1.403076
v -4.363246 0.301637 1.372416
v -4.360217 0.580584 1.281774
v -4.357461 0.834590 1.135112
v -4.355102 1.052555 0.938841
v -4.353231 1.224955 0.701538
v -4.351935 1.344250 0.433574
v -4.351271 1.405231 0.146662
v -4.351271 1.405231 -0.146661
v -4.351935 1.344250 -0.433574
v -4.353230 1.224956 -0.701537
v -4.355103 1.052556 -0.938840
v -4.357464 0.834592 -1.135112
v -4.360217 0.580586 -1.281774
v -4.363245 0.301640 -1.372416
v -3.968216 0.003314 -1.558974
v -3.971734 -0.320791 -1.524907
v -3.975098 -0.630731 -1.424194
v -3.978156 -0.912961 -1.261237
v -3.980785 -1.155144 -1.043157
v -3.982865 -1.346698 -0.779487
v -3.984304 -1.479250 -0.481750
v -3.985036 -1.547006 -0.162957
v -3.985036 -1.547006 0.162957
v -3.984304 -1.479250 0.481749
v -3.982865 -1.346698 0.779487
v -3.980785 -1.155144 1.043157
v -3.978156 -0.912961 1.261237
v -3.975098 -0.630731 1.424194
v -3.971734 -0.320791 1.524907
v -3.968217 0.003314 1.558974
v -3.964701 0.327420 1.524907
v -3.961338 0.637360 1.424194
v -3.958275 0.919589 1.261237
v -3.955650 1.161774 1.043157
v -3.953570 1.353326 0.779487
v -3.952134 1.485879 0.481750
v -3.951398 1.553634 0.162958
v -3.951398 1.553635 -0.162956
v -3.952133 1.485880 -0.481748
v -3.953569 1.353327 -0.779486
v -3.955649 1.161775 -1.043156
v -3.958275 0.919591 -1.261235
v -3.961338 0.637362 -1.424192
v -3.964700 0.327423 -1.524906
v 0.002608 -0.003314 -1.558974
v 0.002602 -0.327420 -1.524907
v 0.002596 -0.637360 -1.424194
v 0.002590 -0.919589 -1.261237
v 0.002585 -1.161774 -1.043157
v 0.002581 -1.353326 -0.779487
v 0.002579 -1.485879 -0.481749
v 0.002577 -1.553635 -0.162957
v 0.002577 -1.553635 0.162957
v 0.002579 -1.485879 0.481750
v 0.002581 -1.353326 0.779487
v 0.002585 -1.161774 1.043157
v 0.002590 -0.919589 1.261237
v 0.002596 -0.637360 1.424194
v 0.002602 -0.327419 1.524907
v 0.002608 -0.003314 1.558974
v 0.002615 0.320791 1.524907
v 0.002621 0.630731 1.424194
v 0.002627 0.912961 1.261237
v 0.002632 1.155144 1.043157
v 0.002636 1.346698 0.779487
v 0.002638 1.479250 0.481750
v 0.002640 1.547006 0.162958
v 0.002640 1.547006 -0.162956
v 0.002638 1.479250 -0.481748
v 0.002636 1.346699 -0.779486
v 0.002632 1.155146 -1.043156
v 0.002627 0.912963 -1.261235
v 0.002621 0.630734 -1.424192
v 0.002615 0.320794 -1.524906
# 722 vertices

vt 0.00000 1.00000
# 1 texture vertices

vn 0.99994 0.01085 0.00000
vn 0.99506 0.01077 -0.09867
vn 0.99528 -0.00975 -0.09660
vn 0.99548 -0.02941 -0.09026
vn 0.99568 -0.04730 -0.07995
vn 0.99584 -0.06263 -0.06613
vn 0.99597 -0.07479 -0.04942
vn 0.99607 -0.08318 -0.03052
vn 0.99610 -0.08758 -0.01035
vn 0.99610 -0.08758 0.01035
vn 0.99607 -0.08318 0.03053
vn 0.99598 -0.07476 0.04939
vn 0.99584 -0.06263 0.06612
vn 0.99568 -0.04730 0.07996
vn 0.99549 -0.02940 0.09023
vn 0.99528 -0.00976 0.09659
vn 0.99506 0.01077 0.09867
vn 0.99483 0.03134 0.09661
vn 0.99462 0.05092 0.09017
vn 0.99443 0.06879 0.07986
vn 0.99427 0.08412 0.06602
vn 0.99414 0.09618 0.04928
vn 0.99407 0.10444 0.03044
vn 0.99401 0.10881 0.01031
vn 0.99401 0.10879 -0.01031
vn 0.99407 0.10444 -0.03044
vn 0.99414 0.09618 -0.04929
vn 0.99426 0.08414 -0.06604
vn 0.99443 0.06880 -0.07986
vn 0.99462 0.05092 -0.09018
vn 0.99483 0.03134 -0.09662
vn -0.99994 0.01085 0.00000
vn -0.99528 -0.00975 -0.09660
vn -0.99506 0.01077 -0.09867
vn -0.99548 -0.02941 -0.09026
vn -0.99568 -0.04730 -0.07995
vn -0.99584 -0.06263 -0.06613
vn -0.99597 -0.07479 -0.04942
vn -0.99607 -0.08318 -0.03052
vn -0.99610 -0.08758 -0.01035
vn -0.99610 -0.08758 0.01035
vn -0.99607 -0.08318 0.03053
vn -0.99598 -0.07476 0.04939
vn -0.99584 -0.06263 0.06612
vn -0.99568 -0.04730 0.07996
vn -0.99549 -0.02940 0.09023
vn -0.99528 -0.00976 0.09659
vn -0.99506 0.01077 0.09867
vn -0.99483 0.03134 0.09661
vn -0.99462 0.05092 0.09017
vn -0.99443 0.06879 0.07986
vn -0.99427 0.08412 0.06602
vn -0.99414 0.09618 0.04928
vn -0.99407 0.10444 0.03044
vn -0.99401 0.10881 0.01031
vn -0.99401 0.10879 -0.01031
vn -0.99407 0.10444 -0.03044
vn -0.99414 0.09618 -0.04929
vn -0.99426 0.08414 -0.06604
vn -0.99443 0.06880 -0.07986
vn -0.99462 0.05092 -0.09018
vn -0.99483 0.03134 -0.09662
vn 0.93445 0.01006 -0.35595
vn 0.93515 -0.06401 -0.34842
vn 0.93583 -0.13491 -0.32560
vn 0.93646 -0.19953 -0.28850
vn 0.93700 -0.25504 -0.23872
vn 0.93740 -0.29905 -0.17848
vn 0.93772 -0.32943 -0.11029
vn 0.98512 -0.16756 -0.03812
vn 0.98512 -0.16756 0.03812
vn 0.93772 -0.32942 0.11030
vn 0.93741 -0.29902 0.17846
vn 0.93700 -0.25504 0.23872
vn 0.93646 -0.19953 0.28851
vn 0.93585 -0.13490 0.32556
vn 0.93515 -0.06401 0.34843
vn 0.93445 0.01006 0.35595
vn 0.93372 0.08405 0.34801
vn 0.93305 0.15466 0.32480
vn 0.93240 0.21897 0.28754
vn 0.93190 0.27401 0.23767
vn 0.93151 0.31747 0.17749
vn 0.93124 0.34751 0.10965
vn 0.93110 0.36288 0.03709
vn 0.93110 0.36287 -0.03709
vn 0.93125 0.34750 -0.10964
vn 0.93152 0.31744 -0.17748
vn 0.93190 0.27400 -0.23766
vn 0.93241 0.21896 -0.28752
vn 0.93304 0.15468 -0.32482
vn 0.93372 0.08405 -0.34800
vn 0.92544 0.01022 -0.37877
vn 0.92634 -0.06852 -0.37042
vn 0.92722 -0.14375 -0.34584
vn 0.92801 -0.21224 -0.30620
vn 0.92867 -0.27101 -0.25323
vn 0.92918 -0.31751 -0.18924
vn 0.93556 -0.32258 -0.14377
vn 0.89226 -0.44554 -0.07322
vn 0.89226 -0.44554 0.07323
vn 0.93556 -0.32258 0.14377
vn 0.92918 -0.31751 0.18924
vn 0.92867 -0.27101 0.25324
vn 0.92800 -0.21225 0.30623
vn 0.92721 -0.14376 0.34584
vn 0.92633 -0.06852 0.37042
vn 0.92543 0.01022 0.37877
vn 0.92455 0.08898 0.37054
vn 0.92368 0.16432 0.34613
vn 0.92288 0.23299 0.30662
vn 0.92222 0.29187 0.25363
vn 0.92168 0.33850 0.18955
vn 0.92130 0.37078 0.11716
vn 0.92114 0.38721 0.03964
vn 0.92114 0.38720 -0.03964
vn 0.92131 0.37077 -0.11715
vn 0.92169 0.33848 -0.18955
vn 0.92223 0.29185 -0.25361
vn 0.92288 0.23297 -0.30662
vn 0.92367 0.16434 -0.34616
vn 0.92455 0.08899 -0.37052
vn 0.94842 0.01016 -0.31685
vn 0.94919 -0.05568 -0.30972
vn 0.94992 -0.11854 -0.28912
vn 0.95059 -0.17576 -0.25589
vn 0.95116 -0.22480 -0.21157
vn 0.95161 -0.26354 -0.15803
vn 0.94568 -0.30017 -0.12486
vn 0.84894 -0.52549 -0.05620
vn 0.84894 -0.52548 0.05620
vn 0.94568 -0.30017 0.12486
vn 0.95162 -0.26354 0.15803
vn 0.95116 -0.22479 0.21158
vn 0.95059 -0.17576 0.25590
vn 0.94992 -0.11855 0.28912
vn 0.94920 -0.05568 0.30972
vn 0.94842 0.01017 0.31685
vn 0.94765 0.07607 0.31012
vn 0.94691 0.13918 0.28980
vn 0.94625 0.19669 0.25677
vn 0.94566 0.24612 0.21248
vn 0.94520 0.28525 0.15883
vn 0.94489 0.31232 0.09819
vn 0.94472 0.32619 0.03322
vn 0.94472 0.32620 -0.03322
vn 0.94489 0.31232 -0.09819
vn 0.94520 0.28525 -0.15885
vn 0.94566 0.24613 -0.21247
vn 0.94625 0.19668 -0.25676
vn 0.94692 0.13917 -0.28979
vn 0.94765 0.07609 -0.31012
vn 0.91493 0.00990 -0.40349
vn 0.91573 -0.07405 -0.39490
vn 0.91648 -0.15442 -0.36907
vn 0.91718 -0.22770 -0.32702
vn 0.91777 -0.29065 -0.27061
vn 0.91823 -0.34048 -0.20229
vn 0.91856 -0.37497 -0.12506
vn 0.91874 -0.39260 -0.04232
vn 0.91874 -0.39260 0.04232
vn 0.91856 -0.37497 0.12506
vn 0.91823 -0.34048 0.20229
vn 0.91777 -0.29064 0.27061
vn 0.91718 -0.22769 0.32700
vn 0.91649 -0.15442 0.36906
vn 0.91573 -0.07405 0.39491
vn 0.91493 0.00991 0.40349
vn 0.91415 0.09372 0.39440
vn 0.91339 0.17378 0.36812
vn 0.91271 0.24660 0.32581
vn 0.91211 0.30903 0.26935
vn 0.91165 0.35834 0.20120
vn 0.91133 0.39246 0.12431
vn 0.91116 0.40991 0.04204
vn 0.91116 0.40991 -0.04204
vn 0.91133 0.39247 -0.12431
vn 0.91165 0.35834 -0.20120
vn 0.91211 0.30904 -0.26935
vn 0.91271 0.24661 -0.32581
vn 0.91340 0.17376 -0.36811
vn 0.91415 0.09372 -0.39440
vn 0.87753 0.00948 -0.47944
vn 0.87840 -0.09027 -0.46932
vn 0.87925 -0.18581 -0.43863
vn 0.88001 -0.27292 -0.38870
vn 0.88068 -0.34777 -0.32166
vn 0.88120 -0.40702 -0.24047
vn 0.88156 -0.44805 -0.14867
vn 0.88174 -0.46905 -0.05031
vn 0.88174 -0.46905 0.05031
vn 0.88156 -0.44805 0.14867
vn 0.88120 -0.40702 0.24047
vn 0.88068 -0.34776 0.32166
vn 0.88001 -0.27292 0.38871
vn 0.87925 -0.18581 0.43863
vn 0.87840 -0.09027 0.46932
vn 0.87753 0.00948 0.47944
vn 0.87664 0.10909 0.46862
vn 0.87580 0.20420 0.43736
vn 0.87502 0.29070 0.38707
vn 0.87438 0.36482 0.31996
vn 0.87385 0.42340 0.23899
vn 0.87349 0.46391 0.14765
vn 0.87331 0.48459 0.04993
vn 0.87331 0.48459 -0.04993
vn 0.87349 0.46391 -0.14765
vn 0.87385 0.42340 -0.23899
vn 0.87438 0.36482 -0.31996
vn 0.87502 0.29071 -0.38707
vn 0.87579 0.20421 -0.43737
vn 0.87664 0.10908 -0.46861
vn 0.83845 0.00906 -0.54491
vn 0.83938 -0.10433 -0.53344
vn 0.84028 -0.21293 -0.49859
vn 0.84109 -0.31198 -0.44185
vn 0.84179 -0.39708 -0.36568
vn 0.84234 -0.46446 -0.27339
vn 0.84273 -0.51112 -0.16902
vn 0.84292 -0.53499 -0.05718
vn 0.84292 -0.53499 0.05718
vn 0.84273 -0.51112 0.16902
vn 0.84234 -0.46446 0.27339
vn 0.84179 -0.39708 0.36569
vn 0.84109 -0.31198 0.44185
vn 0.84028 -0.21294 0.49859
vn 0.83938 -0.10433 0.53344
vn 0.83845 0.00906 0.54491
vn 0.83751 0.12226 0.53257
vn 0.83662 0.23033 0.49701
vn 0.83580 0.32860 0.43983
vn 0.83511 0.41281 0.36356
vn 0.83456 0.47935 0.27154
vn 0.83418 0.52536 0.16776
vn 0.83399 0.54885 0.05674
vn 0.83400 0.54885 -0.05674
vn 0.83418 0.52536 -0.16776
vn 0.83456 0.47936 -0.27153
vn 0.83511 0.41281 -0.36356
vn 0.83581 0.32860 -0.43983
vn 0.83661 0.23034 -0.49701
vn 0.83750 0.12227 -0.53258
vn 0.79951 0.00863 -0.60059
vn 0.80046 -0.11635 -0.58798
vn 0.80138 -0.23606 -0.54961
vn 0.80222 -0.34525 -0.48708
vn 0.80294 -0.43908 -0.40311
vn 0.80350 -0.51338 -0.30138
vn 0.80389 -0.56483 -0.18634
vn 0.80410 -0.59115 -0.06304
vn 0.80410 -0.59115 0.06304
vn 0.80389 -0.56483 0.18634
vn 0.80350 -0.51338 0.30138
vn 0.80294 -0.43908 0.40311
vn 0.80222 -0.34525 0.48708
vn 0.80138 -0.23606 0.54961
vn 0.80046 -0.11635 0.58798
vn 0.79951 0.00863 0.60059
vn 0.79856 0.13339 0.58695
vn 0.79765 0.25249 0.54773
vn 0.79682 0.36077 0.48469
vn 0.79610 0.45356 0.40062
vn 0.79554 0.52687 0.29921
vn 0.79515 0.57755 0.18486
vn 0.79495 0.60344 0.06253
vn 0.79495 0.60344 -0.06252
vn 0.79515 0.57755 -0.18486
vn 0.79554 0.52687 -0.29921
vn 0.79610 0.45356 -0.40062
vn 0.79682 0.36077 -0.48469
vn 0.79765 0.25249 -0.54773
vn 0.79856 0.13339 -0.58695
vn 0.76211 0.00822 -0.64740
vn 0.76307 -0.12651 -0.63382
vn 0.76398 -0.25556 -0.59247
vn 0.76481 -0.37328 -0.52509
vn 0.76553 -0.47444 -0.43458
vn 0.76611 -0.55454 -0.32491
vn 0.76650 -0.61002 -0.20088
vn 0.76670 -0.63840 -0.06796
vn 0.76670 -0.63840 0.06796
vn 0.76650 -0.61002 0.20088
vn 0.76611 -0.55454 0.32491
vn 0.76553 -0.47444 0.43459
vn 0.76481 -0.37328 0.52509
vn 0.76398 -0.25556 0.59247
vn 0.76307 -0.12651 0.63381
vn 0.76211 0.00822 0.64740
vn 0.76115 0.14270 0.63268
vn 0.76024 0.27108 0.59039
vn 0.75940 0.38779 0.52243
vn 0.75869 0.48778 0.43181
vn 0.75813 0.56678 0.32248
vn 0.75774 0.62140 0.19924
vn 0.75753 0.64931 0.06738
vn 0.75753 0.64931 -0.06738
vn 0.75774 0.62140 -0.19924
vn 0.75813 0.56678 -0.32249
vn 0.75869 0.48778 -0.43180
vn 0.75941 0.38778 -0.52243
vn 0.76024 0.27108 -0.59039
vn 0.76115 0.14270 -0.63268
vn 0.56288 0.00642 -0.82652
vn 0.56487 -0.16542 -0.80843
vn 0.56675 -0.32973 -0.75503
vn 0.56847 -0.47935 -0.66863
vn 0.56995 -0.60773 -0.55301
vn 0.57112 -0.70927 -0.41323
vn 0.57193 -0.77954 -0.25539
vn 0.57234 -0.81546 -0.08639
vn 0.57234 -0.81546 0.08639
vn 0.57193 -0.77954 0.25539
vn 0.57112 -0.70927 0.41322
vn 0.56995 -0.60773 0.55301
vn 0.56847 -0.47935 0.66863
vn 0.56675 -0.32973 0.75503
vn 0.56487 -0.16542 0.80843
vn 0.56288 0.00642 0.82651
vn 0.56090 0.17825 0.80847
vn 0.55900 0.34259 0.75509
vn 0.55727 0.49223 0.66870
vn 0.55580 0.62063 0.55308
vn 0.55462 0.72221 0.41329
vn 0.55381 0.79250 0.25542
vn 0.55339 0.82843 0.08640
vn 0.55339 0.82843 -0.08640
vn 0.55381 0.79250 -0.25542
vn 0.55462 0.72221 -0.41329
vn 0.55580 0.62064 -0.55308
vn 0.55728 0.49222 -0.66870
vn 0.55900 0.34258 -0.75509
vn 0.56090 0.17825 -0.80847
vn 0.18326 0.00151 -0.98306
vn 0.18505 -0.20287 -0.96156
vn 0.18675 -0.39831 -0.89804
vn 0.18829 -0.57628 -0.79527
vn 0.18962 -0.72898 -0.65775
vn 0.19068 -0.84975 -0.49149
vn 0.19140 -0.93333 -0.30375
vn 0.19177 -0.97605 -0.10274
vn 0.19178 -0.97605 0.10275
vn 0.19140 -0.93333 0.30375
vn 0.19068 -0.84975 0.49149
vn 0.18962 -0.72898 0.65775
vn 0.18830 -0.57628 0.79527
vn 0.18675 -0.39831 0.89804
vn 0.18504 -0.20287 0.96156
vn 0.18326 0.00151 0.98306
vn 0.18148 0.20590 0.96160
vn 0.17978 0.40136 0.89810
vn 0.17823 0.57935 0.79535
vn 0.17690 0.73209 0.65783
vn 0.17584 0.85290 0.49157
vn 0.17511 0.93650 0.30381
vn 0.17473 0.97924 0.10277
vn 0.17474 0.97924 -0.10276
vn 0.17511 0.93650 -0.30380
vn 0.17584 0.85290 -0.49157
vn 0.17689 0.73209 -0.65783
vn 0.17823 0.57935 -0.79535
vn 0.17978 0.40136 -0.89810
vn 0.18148 0.20590 -0.96160
vn 0.00000 -0.00011 -1.00000
vn 0.00035 -0.20803 -0.97812
vn 0.00068 -0.40685 -0.91349
vn 0.00098 -0.58788 -0.80894
vn 0.00124 -0.74322 -0.66905
vn 0.00144 -0.86607 -0.49992
vn 0.00158 -0.95107 -0.30897
vn 0.00165 -0.99452 -0.10451
vn 0.00165 -0.99452 0.10451
vn 0.00158 -0.95107 0.30897
vn 0.00144 -0.86607 0.49993
vn 0.00124 -0.74322 0.66905
vn 0.00098 -0.58788 0.80894
vn 0.00068 -0.40685 0.91349
vn 0.00035 -0.20803 0.97812
vn 0.00000 -0.00011 1.00000
vn -0.00035 0.20782 0.97817
vn -0.00068 0.40667 0.91358
vn -0.00098 0.58774 0.80905
vn -0.00124 0.74312 0.66916
vn -0.00145 0.86601 0.50002
vn -0.00159 0.95105 0.30903
vn -0.00167 0.99452 0.10454
vn -0.00167 0.99452 -0.10453
vn -0.00159 0.95105 -0.30903
vn -0.00145 0.86601 -0.50002
vn -0.00124 0.74312 -0.66916
vn -0.00098 0.58774 -0.80905
vn -0.00068 0.40667 -0.91357
vn -0.00035 0.20782 -0.97817
vn -0.93515 -0.06401 -0.34842
vn -0.93445 0.01006 -0.35595
vn -0.93583 -0.13491 -0.32560
vn -0.93646 -0.19953 -0.28850
vn -0.93700 -0.25504 -0.23872
vn -0.93740 -0.29905 -0.17848
vn -0.93772 -0.32943 -0.11029
vn -0.98512 -0.16756 -0.03812
vn -0.98512 -0.16756 0.03812
vn -0.93772 -0.32942 0.11030
vn -0.93741 -0.29902 0.17846
vn -0.93700 -0.25504 0.23872
vn -0.93646 -0.19953 0.28851
vn -0.93585 -0.13490 0.32556
vn -0.93515 -0.06401 0.34843
vn -0.93445 0.01006 0.35595
vn -0.93372 0.08405 0.34801
vn -0.93305 0.15466 0.32480
vn -0.93240 0.21897 0.28754
vn -0.93190 0.27401 0.23767
vn -0.93151 0.31747 0.17749
vn -0.93124 0.34751 0.10965
vn -0.93110 0.36288 0.03709
vn -0.93110 0.36287 -0.03709
vn -0.93125 0.34750 -0.10964
vn -0.93152 0.31744 -0.17748
vn -0.93190 0.27400 -0.23766
vn -0.93241 0.21896 -0.28752
vn -0.93304 0.15468 -0.32482
vn -0.93372 0.08405 -0.34800
vn -0.92634 -0.06852 -0.37042
vn -0.92544 0.01022 -0.37877
vn -0.92722 -0.14375 -0.34584
vn -0.92801 -0.21224 -0.30620
vn -0.92867 -0.27101 -0.25323
vn -0.92918 -0.31751 -0.18924
vn -0.93556 -0.32258 -0.14377
vn -0.89226 -0.44554 -0.07322
vn -0.89226 -0.44554 0.07323
vn -0.93556 -0.32258 0.14377
vn -0.92918 -0.31751 0.18924
vn -0.92867 -0.27101 0.25324
vn -0.92800 -0.21225 0.30623
vn -0.92721 -0.14376 0.34584
vn -0.92633 -0.06852 0.37042
vn -0.92543 0.01022 0.37877
vn -0.92455 0.08898 0.37054
vn -0.92368 0.16432 0.34613
vn -0.92288 0.23299 0.30662
vn -0.92222 0.29187 0.25363
vn -0.92168 0.33850 0.18955
vn -0.92130 0.37078 0.11716
vn -0.92114 0.38721 0.03964
vn -0.92114 0.38720 -0.03964
vn -0.92131 0.37077 -0.11715
vn -0.92169 0.33848 -0.18955
vn -0.92223 0.29185 -0.25361
vn -0.92288 0.23297 -0.30662
vn -0.92367 0.16434 -0.34616
vn -0.92455 0.08899 -0.37052
vn -0.94919 -0.05568 -0.30972
vn -0.94842 0.01016 -0.31685
vn -0.94992 -0.11854 -0.28912
vn -0.95059 -0.17576 -0.25589
vn -0.95116 -0.22480 -0.21157
vn -0.95161 -0.26354 -0.15803
vn -0.94568 -0.30017 -0.12486
vn -0.84894 -0.52549 -0.05620
vn -0.84894 -0.52548 0.05620
vn -0.94568 -0.30017 0.12486
vn -0.95162 -0.26354 0.15803
vn -0.95116 -0.22479 0.21158
vn -0.95059 -0.17576 0.25590
vn -0.94992 -0.11855 0.28912
vn -0.94920 -0.05568 0.30972
vn -0.94842 0.01017 0.31685
vn -0.94765 0.07607 0.31012
vn -0.94691 0.13918 0.28980
vn -0.94625 0.19669 0.25677
vn -0.94566 0.24612 0.21248
vn -0.94520 0.28525 0.15883
vn -0.94489 0.31232 0.09819
vn -0.94472 0.32619 0.03322
vn -0.94472 0.32620 -0.03322
vn -0.94489 0.31232 -0.09819
vn -0.94520 0.28525 -0.15885
vn -0.94566 0.24613 -0.21247
vn -0.94625 0.19668 -0.25676
vn -0.94692 0.13917 -0.28979
vn -0.94765 0.07609 -0.31012
vn -0.91573 -0.07405 -0.39490
vn -0.91493 0.00990 -0.40349
vn -0.91648 -0.15442 -0.36907
vn -0.91718 -0.22770 -0.32702
vn -0.91777 -0.29065 -0.27061
vn -0.91823 -0.34048 -0.20229
vn -0.91856 -0.37497 -0.12506
vn -0.91874 -0.39260 -0.04232
vn -0.91874 -0.39260 0.04232
vn -0.91856 -0.37497 0.12506
vn -0.91823 -0.34048 0.20229
vn -0.91777 -0.29064 0.27061
vn -0.91718 -0.22769 0.32700
vn -0.91649 -0.15442 0.36906
vn -0.91573 -0.07405 0.39491
vn -0.91493 0.00991 0.40349
vn -0.91415 0.09372 0.39440
vn -0.91339 0.17378 0.36812
vn -0.91271 0.24660 0.32581
vn -0.91211 0.30903 0.26935
vn -0.91165 0.35834 0.20120
vn -0.91133 0.39246 0.12431
vn -0.91116 0.40991 0.04204
vn -0.91116 0.40991 -0.04204
vn -0.91133 0.39247 -0.12431
vn -0.91165 0.35834 -0.20120
vn -0.91211 0.30904 -0.26935
vn -0.91271 0.24661 -0.32581
vn -0.91340 0.17376 -0.36811
vn -0.91415 0.09372 -0.39440
vn -0.87840 -0.09027 -0.46932
vn -0.87753 0.00948 -0.47944
vn -0.87925 -0.18581 -0.43863
vn -0.88001 -0.27292 -0.38870
vn -0.88068 -0.34777 -0.32166
vn -0.88120 -0.40702 -0.24047
vn -0.88156 -0.44805 -0.14867
vn -0.88174 -0.46905 -0.05031
vn -0.88174 -0.46905 0.05031
vn -0.88156 -0.44805 0.14867
vn -0.88120 -0.40702 0.24047
vn -0.88068 -0.34776 0.32166
vn -0.88001 -0.27292 0.38871
vn -0.87925 -0.18581 0.43863
vn -0.87840 -0.09027 0.46932
vn -0.87753 0.00948 0.47944
vn -0.87664 0.10909 0.46862
vn -0.87580 0.20420 0.43736
vn -0.87502 0.29070 0.38707
vn -0.87438 0.36482 0.31996
vn -0.87385 0.42340 0.23899
vn -0.87349 0.46391 0.14765
vn -0.87331 0.48459 0.04993
vn -0.87331 0.48459 -0.04993
vn -0.87349 0.46391 -0.14765
vn -0.87385 0.42340 -0.23899
vn -0.87438 0.36482 -0.31996
vn -0.87502 0.29071 -0.38707
vn -0.87579 0.20421 -0.43737
vn -0.87664 0.10908 -0.46861
vn -0.83938 -0.10433 -0.53344
vn -0.83845 0.00906 -0.54491
vn -0.84028 -0.21293 -0.49859
vn -0.84109 -0.31198 -0.44185
vn -0.84179 -0.39708 -0.36568
vn -0.84234 -0.46446 -0.27339
vn -0.84273 -0.51112 -0.16902
vn -0.84292 -0.53499 -0.05718
vn -0.84292 -0.53499 0.05718
vn -0.84273 -0.51112 0.16902
vn -0.84234 -0.46446 0.27339
vn -0.84179 -0.39708 0.36569
vn -0.84109 -0.31198 0.44185
vn -0.84028 -0.21294 0.49859
vn -0.83938 -0.10433 0.53344
vn -0.83845 0.00906 0.54491
vn -0.83751 0.12226 0.53257
vn -0.83662 0.23033 0.49701
vn -0.83580 0.32860 0.43983
vn -0.83511 0.41281 0.36356
vn -0.83456 0.47935 0.27154
vn -0.83418 0.52536 0.16776
vn -0.83399 0.54885 0.05674
vn -0.83400 0.54885 -0.05674
vn -0.83418 0.52536 -0.16776
vn -0.83456 0.47936 -0.27153
vn -0.83511 0.41281 -0.36356
vn -0.83581 0.32860 -0.43983
vn -0.83661 0.23034 -0.49701
vn -0.83750 0.12227 -0.53258
vn -0.80046 -0.11635 -0.58798
vn -0.79951 0.00863 -0.60059
vn -0.80138 -0.23606 -0.54961
vn -0.80222 -0.34525 -0.48708
vn -0.80294 -0.43908 -0.40311
vn -0.80350 -0.51338 -0.30138
vn -0.80389 -0.56483 -0.18634
vn -0.80410 -0.59115 -0.06304
vn -0.80410 -0.59115 0.06304
vn -0.80389 -0.56483 0.18634
vn -0.80350 -0.51338 0.30138
vn -0.80294 -0.43908 0.40311
vn -0.80222 -0.34525 0.48708
vn -0.80138 -0.23606 0.54961
vn -0.80046 -0.11635 0.58798
vn -0.79951 0.00863 0.60059
vn -0.79856 0.13339 0.58695
vn -0.79765 0.25249 0.54773
vn -0.79682 0.36077 0.48469
vn -0.79610 0.45356 0.40062
vn -0.79554 0.52687 0.29921
vn -0.79515 0.57755 0.18486
vn -0.79495 0.60344 0.06253
vn -0.79495 0.60344 -0.06252
vn -0.79515 0.57755 -0.18486
vn -0.79554 0.52687 -0.29921
vn -0.79610 0.45356 -0.40062
vn -0.79682 0.36077 -0.48469
vn -0.79765 0.25249 -0.54773
vn -0.79856 0.13339 -0.58695
vn -0.76307 -0.12651 -0.63382
vn -0.76211 0.00822 -0.64740
vn -0.76398 -0.25556 -0.59247
vn -0.76481 -0.37328 -0.52509
vn -0.76553 -0.47444 -0.43458
vn -0.76611 -0.55454 -0.32491
vn -0.76650 -0.61002 -0.20088
vn -0.76670 -0.63840 -0.06796
vn -0.76670 -0.63840 0.06796
vn -0.76650 -0.61002 0.20088
vn -0.76611 -0.55454 0.32491
vn -0.76553 -0.47444 0.43459
vn -0.76481 -0.37328 0.52509
vn -0.76398 -0.25556 0.59247
vn -0.76307 -0.12651 0.63381
vn -0.76211 0.00822 0.64740
vn -0.76115 0.14270 0.63268
vn -0.76024 0.27108 0.59039
vn -0.75940 0.38779 0.52243
vn -0.75869 0.48778 0.43181
vn -0.75813 0.56678 0.32248
vn -0.75774 0.62140 0.19924
vn -0.75753 0.64931 0.06738
vn -0.75753 0.64931 -0.06738
vn -0.75774 0.62140 -0.19924
vn -0.75813 0.56678 -0.32249
vn -0.75869 0.48778 -0.43180
vn -0.75941 0.38778 -0.52243
vn -0.76024 0.27108 -0.59039
vn -0.76115 0.14270 -0.63268
vn -0.56487 -0.16542 -0.80843
vn -0.56288 0.00642 -0.82652
vn -0.56675 -0.32973 -0.75503
vn -0.56847 -0.47935 -0.66863
vn -0.56995 -0.60773 -0.55301
vn -0.57112 -0.70927 -0.41323
vn -0.57193 -0.77954 -0.25539
vn -0.57234 -0.81546 -0.08639
vn -0.57234 -0.81546 0.08639
vn -0.57193 -0.77954 0.25539
vn -0.57112 -0.70927 0.41322
vn -0.56995 -0.60773 0.55301
vn -0.56847 -0.47935 0.66863
vn -0.56675 -0.32973 0.75503
vn -0.56487 -0.16542 0.80843
vn -0.56288 0.00642 0.82651
vn -0.56090 0.17825 0.80847
vn -0.55900 0.34259 0.75509
vn -0.55727 0.49223 0.66870
vn -0.55580 0.62063 0.55308
vn -0.55462 0.72221 0.41329
vn -0.55381 0.79250 0.25542
vn -0.55339 0.82843 0.08640
vn -0.55339 0.82843 -0.08640
vn -0.55381 0.79250 -0.25542
vn -0.55462 0.72221 -0.41329
vn -0.55580 0.62064 -0.55308
vn -0.55728 0.49222 -0.66870
vn -0.55900 0.34258 -0.75509
vn -0.56090 0.17825 -0.80847
vn -0.18505 -0.20287 -0.96156
vn -0.18326 0.00151 -0.98306
vn -0.18675 -0.39831 -0.89804
vn -0.18829 -0.57628 -0.79527
vn -0.18962 -0.72898 -0.65775
vn -0.19068 -0.84975 -0.49149
vn -0.19140 -0.93333 -0.30375
vn -0.19177 -0.97605 -0.10274
vn -0.19178 -0.97605 0.10275
vn -0.19140 -0.93333 0.30375
vn -0.19068 -0.84975 0.49149
vn -0.18962 -0.72898 0.65775
vn -0.18830 -0.57628 0.79527
vn -0.18675 -0.39831 0.89804
vn -0.18504 -0.20287 0.96156
vn -0.18326 0.00151 0.98306
vn -0.18148 0.20590 0.96160
vn -0.17978 0.40136 0.89810
vn -0.17823 0.57935 0.79535
vn -0.17690 0.73209 0.65783
vn -0.17584 0.85290 0.49157
vn -0.17511 0.93650 0.30381
vn -0.17473 0.97924 0.10277
vn -0.17474 0.97924 -0.10276
vn -0.17511 0.93650 -0.30380
vn -0.17584 0.85290 -0.49157
vn -0.17689 0.73209 -0.65783
vn -0.17823 0.57935 -0.79535
vn -0.17978 0.40136 -0.89810
vn -0.18148 0.20590 -0.96160
vn -0.00035 -0.20803 -0.97812
vn -0.00000 -0.00011 -1.00000
vn -0.00068 -0.40685 -0.91349
vn -0.00098 -0.58788 -0.80894
vn -0.00124 -0.74322 -0.66905
vn -0.00144 -0.86607 -0.49992
vn -0.00158 -0.95107 -0.30897
vn -0.00165 -0.99452 -0.10451
vn -0.00165 -0.99452 0.10451
vn -0.00158 -0.95107 0.30897
vn -0.00144 -0.86607 0.49993
vn -0.00124 -0.74322 0.66905
vn -0.00098 -0.58788 0.80894
vn -0.00068 -0.40685 0.91349
vn -0.00035 -0.20803 0.97812
vn -0.00000 -0.00011 1.00000
vn 0.00035 0.20782 0.97817
vn 0.00068 0.40667 0.91358
vn 0.00098 0.58774 0.80905
vn 0.00124 0.74312 0.66916
vn 0.00145 0.86601 0.50002
vn 0.00159 0.95105 0.30903
vn 0.00167 0.99452 0.10454
vn 0.00167 0.99452 -0.10453
vn 0.00159 0.95105 -0.30903
vn 0.00145 0.86601 -0.50002
vn 0.00124 0.74312 -0.66916
vn 0.00098 0.58774 -0.80905
vn 0.00068 0.40667 -0.91357
vn 0.00035 0.20782 -0.97817
# 722 normal vertices

g obj1
f 3/1/3 2/1/2 1/1/1
f 4/1/4 3/1/3 1/1/1
f 5/1/5 4/1/4 1/1/1
f 6/1/6 5/1/5 1/1/1
f 7/1/7 6/1/6 1/1/1
f 8/1/8 7/1/7 1/1/1
f 9/1/9 8/1/8 1/1/1
f 10/1/10 9/1/9 1/1/1
f 11/1/11 10/1/10 1/1/1
f 12/1/12 11/1/11 1/1/1
f 13/1/13 12/1/12 1/1/1
f 14/1/14 13/1/13 1/1/1
f 15/1/15 14/1/14 1/1/1
f 16/1/16 15/1/15 1/1/1
f 17/1/17 16/1/16 1/1/1
f 18/1/18 17/1/17 1/1/1
f 19/1/19 18/1/18 1/1/1
f 20/1/20 19/1/19 1/1/1
f 21/1/21 20/1/20 1/1/1
f 22/1/22 21/1/21 1/1/1
f 23/1/23 22/1/22 1/1/1
f 24/1/24 23/1/23 1/1/1
f 25/1/25 24/1/24 1/1/1
f 26/1/26 25/1/25 1/1/1
f 27/1/27 26/1/26 1/1/1
f 28/1/28 27/1/27 1/1/1
f 29/1/29 28/1/28 1/1/1
f 30/1/30 29/1/29 1/1/1
f 31/1/31 30/1/30 1/1/1
f 2/1/2 31/1/31 1/1/1
f 363/1/34 364/1/33 362/1/32
f 364/1/33 365/1/35 362/1/32
f 365/1/35 366/1/36 362/1/32
f 366/1/36 367/1/37 362/1/32
f 367/1/37 368/1/38 362/1/32
f 368/1/38 369/1/39 362/1/32
f 369/1/39 370/1/40 362/1/32
f 370/1/40 371/1/41 362/1/32
f 371/1/41 372/1/42 362/1/32
f 372/1/42 373/1/43 362/1/32
f 373/1/43 374/1/44 362/1/32
f 374/1/44 375/1/45 362/1/32
f 375/1/45 376/1/46 362/1/32
f 376/1/46 377/1/47 362/1/32
f 377/1/47 378/1/48 362/1/32
f 378/1/48 379/1/49 362/1/32
f 379/1/49 380/1/50 362/1/32
f 380/1/50 381/1/51 362/1/32
f 381/1/51 382/1/52 362/1/32
f 382/1/52 383/1/53 362/1/32
f 383/1/53 384/1/54 362/1/32
f 384/1/54 385/1/55 362/1/32
f 385/1/55 386/1/56 362/1/32
f 386/1/56 387/1/57 362/1/32
f 387/1/57 388/1/58 362/1/32
f 388/1/58 389/1/59 362/1/32
f 389/1/59 390/1/60 362/1/32
f 390/1/60 391/1/61 362/1/32
f 391/1/61 392/1/62 362/1/32
f 392/1/62 363/1/34 362/1/32
f 33/1/64 32/1/63 2/1/2
f 3/1/3 33/1/64 2/1/2
f 34/1/65 33/1/64 3/1/3
f 4/1/4 34/1/65 3/1/3
f 35/1/66 34/1/65 4/1/4
f 5/1/5 35/1/66 4/1/4
f 36/1/67 35/1/66 5/1/5
f 6/1/6 36/1/67 5/1/5
f 37/1/68 36/1/67 6/1/6
f 7/1/7 37/1/68 6/1/6
f 38/1/69 37/1/68 7/1/7
f 8/1/8 38/1/69 7/1/7
f 39/1/70 38/1/69 8/1/8
f 9/1/9 39/1/70 8/1/8
f 40/1/71 39/1/70 9/1/9
f 10/1/10 40/1/71 9/1/9
f 11/1/11 41/1/72 40/1/71
f 10/1/10 11/1/11 40/1/71
f 12/1/12 42/1/73 41/1/72
f 11/1/11 12/1/12 41/1/72
f 13/1/13 43/1/74 42/1/73
f 12/1/12 13/1/13 42/1/73
f 14/1/14 44/1/75 43/1/74
f 13/1/13 14/1/14 43/1/74
f 15/1/15 45/1/76 44/1/75
f 14/1/14 15/1/15 44/1/75
f 16/1/16 46/1/77 45/1/76
f 15/1/15 16/1/16 45/1/76
f 17/1/17 47/1/78 46/1/77
f 16/1/16 17/1/17 46/1/77
f 18/1/18 48/1/79 47/1/78
f 17/1/17 18/1/18 47/1/78
f 19/1/19 49/1/80 48/1/79
f 18/1/18 19/1/19 48/1/79
f 20/1/20 50/1/81 49/1/80
f 19/1/19 20/1/20 49/1/80
f 21/1/21 51/1/82 50/1/81
f 20/1/20 21/1/21 50/1/81
f 22/1/22 52/1/83 51/1/82
f 21/1/21 22/1/22 51/1/82
f 23/1/23 53/1/84 52/1/83
f 22/1/22 23/1/23 52/1/83
f 24/1/24 54/1/85 53/1/84
f 23/1/23 24/1/24 53/1/84
f 55/1/86 54/1/85 24/1/24
f 25/1/25 55/1/86 24/1/24
f 56/1/87 55/1/86 25/1/25
f 26/1/26 56/1/87 25/1/25
f 57/1/88 56/1/87 26/1/26
f 27/1/27 57/1/88 26/1/26
f 58/1/89 57/1/88 27/1/27
f 28/1/28 58/1/89 27/1/27
f 59/1/90 58/1/89 28/1/28
f 29/1/29 59/1/90 28/1/28
f 60/1/91 59/1/90 29/1/29
f 30/1/30 60/1/91 29/1/29
f 61/1/92 60/1/91 30/1/30
f 31/1/31 61/1/92 30/1/30
f 32/1/63 61/1/92 31/1/31
f 2/1/2 32/1/63 31/1/31
f 63/1/94 62/1/93 32/1/63
f 33/1/64 63/1/94 32/1/63
f 64/1/95 63/1/94 33/1/64
f 34/1/65 64/1/95 33/1/64
f 65/1/96 64/1/95 34/1/65
f 35/1/66 65/1/96 34/1/65
f 66/1/97 65/1/96 35/1/66
f 36/1/67 66/1/97 35/1/66
f 67/1/98 66/1/97 36/1/67
f 37/1/68 67/1/98 36/1/67
f 68/1/99 67/1/98 37/1/68
f 38/1/69 68/1/99 37/1/68
f 39/1/70 69/1/100 68/1/99
f 38/1/69 39/1/70 68/1/99
f 40/1/71 70/1/101 69/1/100
f 39/1/70 40/1/71 69/1/100
f 71/1/102 70/1/101 40/1/71
f 41/1/72 71/1/102 40/1/71
f 42/1/73 72/1/103 71/1/102
f 41/1/72 42/1/73 71/1/102
f 43/1/74 73/1/104 72/1/103
f 42/1/73 43/1/74 72/1/103
f 44/1/75 74/1/105 73/1/104
f 43/1/74 44/1/75 73/1/104
f 45/1/76 75/1/106 74/1/105
f 44/1/75 45/1/76 74/1/105
f 46/1/77 76/1/107 75/1/106
f 45/1/76 46/1/77 75/1/106
f 47/1/78 77/1/108 76/1/107
f 46/1/77 47/1/78 76/1/107
f 48/1/79 78/1/109 77/1/108
f 47/1/78 48/1/79 77/1/108
f 49/1/80 79/1/110 78/1/109
f 48/1/79 49/1/80 78/1/109
f 50/1/81 80/1/111 79/1/110
f 49/1/80 50/1/81 79/1/110
f 51/1/82 81/1/112 80/1/111
f 50/1/81 51/1/82 80/1/111
f 52/1/83 82/1/113 81/1/112
f 51/1/82 52/1/83 81/1/112
f 53/1/84 83/1/114 82/1/113
f 52/1/83 53/1/84 82/1/113
f 54/1/85 84/1/115 83/1/114
f 53/1/84 54/1/85 83/1/114
f 85/1/116 84/1/115 54/1/85
f 55/1/86 85/1/116 54/1/85
f 86/1/117 85/1/116 55/1/86
f 56/1/87 86/1/117 55/1/86
f 87/1/118 86/1/117 56/1/87
f 57/1/88 87/1/118 56/1/87
f 88/1/119 87/1/118 57/1/88
f 58/1/89 88/1/119 57/1/88
f 89/1/120 88/1/119 58/1/89
f 59/1/90 89/1/120 58/1/89
f 90/1/121 89/1/120 59/1/90
f 60/1/91 90/1/121 59/1/90
f 91/1/122 90/1/121 60/1/91
f 61/1/92 91/1/122 60/1/91
f 62/1/93 91/1/122 61/1/92
f 32/1/63 62/1/93 61/1/92
f 63/1/94 93/1/124 92/1/123
f 62/1/93 63/1/94 92/1/123
f 64/1/95 94/1/125 93/1/124
f 63/1/94 64/1/95 93/1/124
f 65/1/96 95/1/126 94/1/125
f 64/1/95 65/1/96 94/1/125
f 66/1/97 96/1/127 95/1/126
f 65/1/96 66/1/97 95/1/126
f 67/1/98 97/1/128 96/1/127
f 66/1/97 67/1/98 96/1/127
f 68/1/99 98/1/129 97/1/128
f 67/1/98 68/1/99 97/1/128
f 69/1/100 99/1/130 98/1/129
f 68/1/99 69/1/100 98/1/129
f 100/1/131 99/1/130 69/1/100
f 70/1/101 100/1/131 69/1/100
f 101/1/132 100/1/131 70/1/101
f 71/1/102 101/1/132 70/1/101
f 102/1/133 101/1/132 71/1/102
f 72/1/103 102/1/133 71/1/102
f 103/1/134 102/1/133 72/1/103
f 73/1/104 103/1/134 72/1/103
f 104/1/135 103/1/134 73/1/104
f 74/1/105 104/1/135 73/1/104
f 105/1/136 104/1/135 74/1/105
f 75/1/106 105/1/136 74/1/105
f 106/1/137 105/1/136 75/1/106
f 76/1/107 106/1/137 75/1/106
f 107/1/138 106/1/137 76/1/107
f 77/1/108 107/1/138 76/1/107
f 108/1/139 107/1/138 77/1/108
f 78/1/109 108/1/139 77/1/108
f 109/1/140 108/1/139 78/1/109
f 79/1/110 109/1/140 78/1/109
f 110/1/141 109/1/140 79/1/110
f 80/1/111 110/1/141 79/1/110
f 111/1/142 110/1/141 80/1/111
f 81/1/112 111/1/142 80/1/111
f 112/1/143 111/1/142 81/1/112
f 82/1/113 112/1/143 81/1/112
f 113/1/144 112/1/143 82/1/113
f 83/1/114 113/1/144 82/1/113
f 114/1/145 113/1/144 83/1/114
f 84/1/115 114/1/145 83/1/114
f 85/1/116 115/1/146 114/1/145
f 84/1/115 85/1/116 114/1/145
f 86/1/117 116/1/147 115/1/146
f 85/1/116 86/1/117 115/1/146
f 87/1/118 117/1/148 116/1/147
f 86/1/117 87/1/118 116/1/147
f 88/1/119 118/1/149 117/1/148
f 87/1/118 88/1/119 117/1/148
f 89/1/120 119/1/150 118/1/149
f 88/1/119 89/1/120 118/1/149
f 90/1/121 120/1/151 119/1/150
f 89/1/120 90/1/121 119/1/150
f 91/1/122 121/1/152 120/1/151
f 90/1/121 91/1/122 120/1/151
f 62/1/93 92/1/123 121/1/152
f 91/1/122 62/1/93 121/1/152
f 123/1/154 122/1/153 92/1/123
f 93/1/124 123/1/154 92/1/123
f 124/1/155 123/1/154 93/1/124
f 94/1/125 124/1/155 93/1/124
f 125/1/156 124/1/155 94/1/125
f 95/1/126 125/1/156 94/1/125
f 126/1/157 125/1/156 95/1/126
f 96/1/127 126/1/157 95/1/126
f 127/1/158 126/1/157 96/1/127
f 97/1/128 127/1/158 96/1/127
f 128/1/159 127/1/158 97/1/128
f 98/1/129 128/1/159 97/1/128
f 129/1/160 128/1/159 98/1/129
f 99/1/130 129/1/160 98/1/129
f 130/1/161 129/1/160 99/1/130
f 100/1/131 130/1/161 99/1/130
f 101/1/132 131/1/162 130/1/161
f 100/1/131 101/1/132 130/1/161
f 102/1/133 132/1/163 131/1/162
f 101/1/132 102/1/133 131/1/162
f 103/1/134 133/1/164 132/1/163
f 102/1/133 103/1/134 132/1/163
f 104/1/135 134/1/165 133/1/164
f 103/1/134 104/1/135 133/1/164
f 105/1/136 135/1/166 134/1/165
f 104/1/135 105/1/136 134/1/165
f 106/1/137 136/1/167 135/1/166
f 105/1/136 106/1/137 135/1/166
f 107/1/138 137/1/168 136/1/167
f 106/1/137 107/1/138 136/1/167
f 108/1/139 138/1/169 137/1/168
f 107/1/138 108/1/139 137/1/168
f 109/1/140 139/1/170 138/1/169
f 108/1/139 109/1/140 138/1/169
f 110/1/141 140/1/171 139/1/170
f 109/1/140 110/1/141 139/1/170
f 111/1/142 141/1/172 140/1/171
f 110/1/141 111/1/142 140/1/171
f 112/1/143 142/1/173 141/1/172
f 111/1/142 112/1/143 141/1/172
f 113/1/144 143/1/174 142/1/173
f 112/1/143 113/1/144 142/1/173
f 114/1/145 144/1/175 143/1/174
f 113/1/144 114/1/145 143/1/174
f 115/1/146 145/1/176 144/1/175
f 114/1/145 115/1/146 144/1/175
f 146/1/177 145/1/176 115/1/146
f 116/1/147 146/1/177 115/1/146
f 147/1/178 146/1/177 116/1/147
f 117/1/148 147/1/178 116/1/147
f 148/1/179 147/1/178 117/1/148
f 118/1/149 148/1/179 117/1/148
f 149/1/180 148/1/179 118/1/149
f 119/1/150 149/1/180 118/1/149
f 150/1/181 149/1/180 119/1/150
f 120/1/151 150/1/181 119/1/150
f 151/1/182 150/1/181 120/1/151
f 121/1/152 151/1/182 120/1/151
f 122/1/153 151/1/182 121/1/152
f 92/1/123 122/1/153 121/1/152
f 153/1/184 152/1/183 122/1/153
f 123/1/154 153/1/184 122/1/153
f 154/1/185 153/1/184 123/1/154
f 124/1/155 154/1/185 123/1/154
f 155/1/186 154/1/185 124/1/155
f 125/1/156 155/1/186 124/1/155
f 156/1/187 155/1/186 125/1/156
f 126/1/157 156/1/187 125/1/156
f 157/1/188 156/1/187 126/1/157
f 127/1/158 157/1/188 126/1/157
f 158/1/189 157/1/188 127/1/158
f 128/1/159 158/1/189 127/1/158
f 159/1/190 158/1/189 128/1/159
f 129/1/160 159/1/190 128/1/159
f 160/1/191 159/1/190 129/1/160
f 130/1/161 160/1/191 129/1/160
f 131/1/162 161/1/192 160/1/191
f 130/1/161 131/1/162 160/1/191
f 132/1/163 162/1/193 161/1/192
f 131/1/162 132/1/163 161/1/192
f 133/1/164 163/1/194 162/1/193
f 132/1/163 133/1/164 162/1/193
f 134/1/165 164/1/195 163/1/194
f 133/1/164 134/1/165 163/1/194
f 135/1/166 165/1/196 164/1/195
f 134/1/165 135/1/166 164/1/195
f 136/1/167 166/1/197 165/1/196
f 135/1/166 136/1/167 165/1/196
f 137/1/168 167/1/198 166/1/197
f 136/1/167 137/1/168 166/1/197
f 138/1/169 168/1/199 167/1/198
f 137/1/168 138/1/169 167/1/198
f 139/1/170 169/1/200 168/1/199
f 138/1/169 139/1/170 168/1/199
f 140/1/171 170/1/201 169/1/200
f 139/1/170 140/1/171 169/1/200
f 141/1/172 171/1/202 170/1/201
f 140/1/171 141/1/172 170/1/201
f 142/1/173 172/1/203 171/1/202
f 141/1/172 142/1/173 171/1/202
f 143/1/174 173/1/204 172/1/203
f 142/1/173 143/1/174 172/1/203
f 144/1/175 174/1/205 173/1/204
f 143/1/174 144/1/175 173/1/204
f 175/1/206 174/1/205 144/1/175
f 145/1/176 175/1/206 144/1/175
f 176/1/207 175/1/206 145/1/176
f 146/1/177 176/1/207 145/1/176
f 177/1/208 176/1/207 146/1/177
f 147/1/178 177/1/208 146/1/177
f 178/1/209 177/1/208 147/1/178
f 148/1/179 178/1/209 147/1/178
f 179/1/210 178/1/209 148/1/179
f 149/1/180 179/1/210 148/1/179
f 180/1/211 179/1/210 149/1/180
f 150/1/181 180/1/211 149/1/180
f 181/1/212 180/1/211 150/1/181
f 151/1/182 181/1/212 150/1/181
f 152/1/183 181/1/212 151/1/182
f 122/1/153 152/1/183 151/1/182
f 183/1/214 182/1/213 152/1/183
f 153/1/184 183/1/214 152/1/183
f 184/1/215 183/1/214 153/1/184
f 154/1/185 184/1/215 153/1/184
f 185/1/216 184/1/215 154/1/185
f 155/1/186 185/1/216 154/1/185
f 186/1/217 185/1/216 155/1/186
f 156/1/187 186/1/217 155/1/186
f 187/1/218 186/1/217 156/1/187
f 157/1/188 187/1/218 156/1/187
f 188/1/219 187/1/218 157/1/188
f 158/1/189 188/1/219 157/1/188
f 189/1/220 188/1/219 158/1/189
f 159/1/190 189/1/220 158/1/189
f 190/1/221 189/1/220 159/1/190
f 160/1/191 190/1/221 159/1/190
f 161/1/192 191/1/222 190/1/221
f 160/1/191 161/1/192 190/1/221
f 162/1/193 192/1/223 191/1/222
f 161/1/192 162/1/193 191/1/222
f 163/1/194 193/1/224 192/1/223
f 162/1/193 163/1/194 192/1/223
f 164/1/195 194/1/225 193/1/224
f 163/1/194 164/1/195 193/1/224
f 165/1/196 195/1/226 194/1/225
f 164/1/195 165/1/196 194/1/225
f 166/1/197 196/1/227 195/1/226
f 165/1/196 166/1/197 195/1/226
f 167/1/198 197/1/228 196/1/227
f 166/1/197 167/1/198 196/1/227
f 168/1/199 198/1/229 197/1/228
f 167/1/198 168/1/199 197/1/228
f 169/1/200 199/1/230 198/1/229
f 168/1/199 169/1/200 198/1/229
f 170/1/201 200/1/231 199/1/230
f 169/1/200 170/1/201 199/1/230
f 171/1/202 201/1/232 200/1/231
f 170/1/201 171/1/202 200/1/231
f 172/1/203 202/1/233 201/1/232
f 171/1/202 172/1/203 201/1/232
f 173/1/204 203/1/234 202/1/233
f 172/1/203 173/1/204 202/1/233
f 174/1/205 204/1/235 203/1/234
f 173/1/204 174/1/205 203/1/234
f 205/1/236 204/1/235 174/1/205
f 175/1/206 205/1/236 174/1/205
f 206/1/237 205/1/236 175/1/206
f 176/1/207 206/1/237 175/1/206
f 207/1/238 206/1/237 176/1/207
f 177/1/208 207/1/238 176/1/207
f 208/1/239 207/1/238 177/1/208
f 178/1/209 208/1/239 177/1/208
f 209/1/240 208/1/239 178/1/209
f 179/1/210 209/1/240 178/1/209
f 210/1/241 209/1/240 179/1/210
f 180/1/211 210/1/241 179/1/210
f 211/1/242 210/1/241 180/1/211
f 181/1/212 211/1/242 180/1/211
f 182/1/213 211/1/242 181/1/212
f 152/1/183 182/1/213 181/1/212
f 213/1/244 212/1/243 182/1/213
f 183/1/214 213/1/244 182/1/213
f 214/1/245 213/1/244 183/1/214
f 184/1/215 214/1/245 183/1/214
f 215/1/246 214/1/245 184/1/215
f 185/1/216 215/1/246 184/1/215
f 216/1/247 215/1/246 185/1/216
f 186/1/217 216/1/247 185/1/216
f 217/1/248 216/1/247 186/1/217
f 187/1/218 217/1/248 186/1/217
f 218/1/249 217/1/248 187/1/218
f 188/1/219 218/1/249 187/1/218
f 219/1/250 218/1/249 188/1/219
f 189/1/220 219/1/250 188/1/219
f 190/1/221 220/1/251 219/1/250
f 189/1/220 190/1/221 219/1/250
f 191/1/222 221/1/252 220/1/251
f 190/1/221 191/1/222 220/1/251
f 192/1/223 222/1/253 221/1/252
f 191/1/222 192/1/223 221/1/252
f 193/1/224 223/1/254 222/1/253
f 192/1/223 193/1/224 222/1/253
f 194/1/225 224/1/255 223/1/254
f 193/1/224 194/1/225 223/1/254
f 195/1/226 225/1/256 224/1/255
f 194/1/225 195/1/226 224/1/255
f 196/1/227 226/1/257 225/1/256
f 195/1/226 196/1/227 225/1/256
f 197/1/228 227/1/258 226/1/257
f 196/1/227 197/1/228 226/1/257
f 198/1/229 228/1/259 227/1/258
f 197/1/228 198/1/229 227/1/258
f 199/1/230 229/1/260 228/1/259
f 198/1/229 199/1/230 228/1/259
f 200/1/231 230/1/261 229/1/260
f 199/1/230 200/1/231 229/1/260
f 201/1/232 231/1/262 230/1/261
f 200/1/231 201/1/232 230/1/261
f 202/1/233 232/1/263 231/1/262
f 201/1/232 202/1/233 231/1/262
f 203/1/234 233/1/264 232/1/263
f 202/1/233 203/1/234 232/1/263
f 204/1/235 234/1/265 233/1/264
f 203/1/234 204/1/235 233/1/264
f 235/1/266 234/1/265 204/1/235
f 205/1/236 235/1/266 204/1/235
f 236/1/267 235/1/266 205/1/236
f 206/1/237 236/1/267 205/1/236
f 237/1/268 236/1/267 206/1/237
f 207/1/238 237/1/268 206/1/237
f 238/1/269 237/1/268 207/1/238
f 208/1/239 238/1/269 207/1/238
f 239/1/270 238/1/269 208/1/239
f 209/1/240 239/1/270 208/1/239
f 240/1/271 239/1/270 209/1/240
f 210/1/241 240/1/271 209/1/240
f 241/1/272 240/1/271 210/1/241
f 211/1/242 241/1/272 210/1/241
f 212/1/243 241/1/272 211/1/242
f 182/1/213 212/1/243 211/1/242
f 243/1/274 242/1/273 212/1/243
f 213/1/244 243/1/274 212/1/243
f 244/1/275 243/1/274 213/1/244
f 214/1/245 244/1/275 213/1/244
f 245/1/276 244/1/275 214/1/245
f 215/1/246 245/1/276 214/1/245
f 246/1/277 245/1/276 215/1/246
f 216/1/247 246/1/277 215/1/246
f 247/1/278 246/1/277 216/1/247
f 217/1/248 247/1/278 216/1/247
f 248/1/279 247/1/278 217/1/248
f 218/1/249 248/1/279 217/1/248
f 249/1/280 248/1/279 218/1/249
f 219/1/250 249/1/280 218/1/249
f 250/1/281 249/1/280 219/1/250
f 220/1/251 250/1/281 219/1/250
f 221/1/252 251/1/282 250/1/281
f 220/1/251 221/1/252 250/1/281
f 222/1/253 252/1/283 251/1/282
f 221/1/252 222/1/253 251/1/282
f 223/1/254 253/1/284 252/1/283
f 222/1/253 223/1/254 252/1/283
f 224/1/255 254/1/285 253/1/284
f 223/1/254 224/1/255 253/1/284
f 225/1/256 255/1/286 254/1/285
f 224/1/255 225/1/256 254/1/285
f 226/1/257 256/1/287 255/1/286
f 225/1/256 226/1/257 255/1/286
f 227/1/258 257/1/288 256/1/287
f 226/1/257 227/1/258 256/1/287
f 228/1/259 258/1/289 257/1/288
f 227/1/258 228/1/259 257/1/288
f 229/1/260 259/1/290 258/1/289
f 228/1/259 229/1/260 258/1/289
f 230/1/261 260/1/291 259/1/290
f 229/1/260 230/1/261 259/1/290
f 231/1/262 261/1/292 260/1/291
f 230/1/261 231/1/262 260/1/291
f 232/1/263 262/1/293 261/1/292
f 231/1/262 232/1/263 261/1/292
f 233/1/264 263/1/294 262/1/293
f 232/1/263 233/1/264 262/1/293
f 234/1/265 264/1/295 263/1/294
f 233/1/264 234/1/265 263/1/294
f 235/1/266 265/1/296 264/1/295
f 234/1/265 235/1/266 264/1/295
f 266/1/297 265/1/296 235/1/266
f 236/1/267 266/1/297 235/1/266
f 267/1/298 266/1/297 236/1/267
f 237/1/268 267/1/298 236/1/267
f 268/1/299 267/1/298 237/1/268
f 238/1/269 268/1/299 237/1/268
f 269/1/300 268/1/299 238/1/269
f 239/1/270 269/1/300 238/1/269
f 270/1/301 269/1/300 239/1/270
f 240/1/271 270/1/301 239/1/270
f 271/1/302 270/1/301 240/1/271
f 241/1/272 271/1/302 240/1/271
f 242/1/273 271/1/302 241/1/272
f 212/1/243 242/1/273 241/1/272
f 273/1/304 272/1/303 242/1/273
f 243/1/274 273/1/304 242/1/273
f 274/1/305 273/1/304 243/1/274
f 244/1/275 274/1/305 243/1/274
f 275/1/306 274/1/305 244/1/275
f 245/1/276 275/1/306 244/1/275
f 276/1/307 275/1/306 245/1/276
f 246/1/277 276/1/307 245/1/276
f 277/1/308 276/1/307 246/1/277
f 247/1/278 277/1/308 246/1/277
f 278/1/309 277/1/308 247/1/278
f 248/1/279 278/1/309 247/1/278
f 279/1/310 278/1/309 248/1/279
f 249/1/280 279/1/310 248/1/279
f 280/1/311 279/1/310 249/1/280
f 250/1/281 280/1/311 249/1/280
f 251/1/282 281/1/312 280/1/311
f 250/1/281 251/1/282 280/1/311
f 252/1/283 282/1/313 281/1/312
f 251/1/282 252/1/283 281/1/312
f 253/1/284 283/1/314 282/1/313
f 252/1/283 253/1/284 282/1/313
f 254/1/285 284/1/315 283/1/314
f 253/1/284 254/1/285 283/1/314
f 255/1/286 285/1/316 284/1/315
f 254/1/285 255/1/286 284/1/315
f 256/1/287 286/1/317 285/1/316
f 255/1/286 256/1/287 285/1/316
f 257/1/288 287/1/318 286/1/317
f 256/1/287 257/1/288 286/1/317
f 258/1/289 288/1/319 287/1/318
f 257/1/288 258/1/289 287/1/318
f 259/1/290 289/1/320 288/1/319
f 258/1/289 259/1/290 288/1/319
f 260/1/291 290/1/321 289/1/320
f 259/1/290 260/1/291 289/1/320
f 261/1/292 291/1/322 290/1/321
f 260/1/291 261/1/292 290/1/321
f 262/1/293 292/1/323 291/1/322
f 261/1/292 262/1/293 291/1/322
f 263/1/294 293/1/324 292/1/323
f 262/1/293 263/1/294 292/1/323
f 264/1/295 294/1/325 293/1/324
f 263/1/294 264/1/295 293/1/324
f 295/1/326 294/1/325 264/1/295
f 265/1/296 295/1/326 264/1/295
f 296/1/327 295/1/326 265/1/296
f 266/1/297 296/1/327 265/1/296
f 297/1/328 296/1/327 266/1/297
f 267/1/298 297/1/328 266/1/297
f 298/1/329 297/1/328 267/1/298
f 268/1/299 298/1/329 267/1/298
f 299/1/330 298/1/329 268/1/299
f 269/1/300 299/1/330 268/1/299
f 300/1/331 299/1/330 269/1/300
f 270/1/301 300/1/331 269/1/300
f 301/1/332 300/1/331 270/1/301
f 271/1/302 301/1/332 270/1/301
f 272/1/303 301/1/332 271/1/302
f 242/1/273 272/1/303 271/1/302
f 273/1/304 303/1/334 302/1/333
f 272/1/303 273/1/304 302/1/333
f 274/1/305 304/1/335 303/1/334
f 273/1/304 274/1/305 303/1/334
f 275/1/306 305/1/336 304/1/335
f 274/1/305 275/1/306 304/1/335
f 276/1/307 306/1/337 305/1/336
f 275/1/306 276/1/307 305/1/336
f 277/1/308 307/1/338 306/1/337
f 276/1/307 277/1/308 306/1/337
f 278/1/309 308/1/339 307/1/338
f 277/1/308 278/1/309 307/1/338
f 279/1/310 309/1/340 308/1/339
f 278/1/309 279/1/310 308/1/339
f 280/1/311 310/1/341 309/1/340
f 279/1/310 280/1/311 309/1/340
f 311/1/342 310/1/341 280/1/311
f 281/1/312 311/1/342 280/1/311
f 312/1/343 311/1/342 281/1/312
f 282/1/313 312/1/343 281/1/312
f 313/1/344 312/1/343 282/1/313
f 283/1/314 313/1/344 282/1/313
f 314/1/345 313/1/344 283/1/314
f 284/1/315 314/1/345 283/1/314
f 315/1/346 314/1/345 284/1/315
f 285/1/316 315/1/346 284/1/315
f 316/1/347 315/1/346 285/1/316
f 286/1/317 316/1/347 285/1/316
f 317/1/348 316/1/347 286/1/317
f 287/1/318 317/1/348 286/1/317
f 318/1/349 317/1/348 287/1/318
f 288/1/319 318/1/349 287/1/318
f 319/1/350 318/1/349 288/1/319
f 289/1/320 319/1/350 288/1/319
f 320/1/351 319/1/350 289/1/320
f 290/1/321 320/1/351 289/1/320
f 321/1/352 320/1/351 290/1/321
f 291/1/322 321/1/352 290/1/321
f 322/1/353 321/1/352 291/1/322
f 292/1/323 322/1/353 291/1/322
f 323/1/354 322/1/353 292/1/323
f 293/1/324 323/1/354 292/1/323
f 324/1/355 323/1/354 293/1/324
f 294/1/325 324/1/355 293/1/324
f 325/1/356 324/1/355 294/1/325
f 295/1/326 325/1/356 294/1/325
f 296/1/327 326/1/357 325/1/356
f 295/1/326 296/1/327 325/1/356
f 297/1/328 327/1/358 326/1/357
f 296/1/327 297/1/328 326/1/357
f 298/1/329 328/1/359 327/1/358
f 297/1/328 298/1/329 327/1/358
f 299/1/330 329/1/360 328/1/359
f 298/1/329 299/1/330 328/1/359
f 300/1/331 330/1/361 329/1/360
f 299/1/330 300/1/331 329/1/360
f 301/1/332 331/1/362 330/1/361
f 300/1/331 301/1/332 330/1/361
f 272/1/303 302/1/333 331/1/362
f 301/1/332 272/1/303 331/1/362
f 333/1/364 332/1/363 302/1/333
f 303/1/334 333/1/364 302/1/333
f 334/1/365 333/1/364 303/1/334
f 304/1/335 334/1/365 303/1/334
f 335/1/366 334/1/365 304/1/335
f 305/1/336 335/1/366 304/1/335
f 336/1/367 335/1/366 305/1/336
f 306/1/337 336/1/367 305/1/336
f 337/1/368 336/1/367 306/1/337
f 307/1/338 337/1/368 306/1/337
f 338/1/369 337/1/368 307/1/338
f 308/1/339 338/1/369 307/1/338
f 339/1/370 338/1/369 308/1/339
f 309/1/340 339/1/370 308/1/339
f 340/1/371 339/1/370 309/1/340
f 310/1/341 340/1/371 309/1/340
f 311/1/342 341/1/372 340/1/371
f 310/1/341 311/1/342 340/1/371
f 312/1/343 342/1/373 341/1/372
f 311/1/342 312/1/343 341/1/372
f 313/1/344 343/1/374 342/1/373
f 312/1/343 313/1/344 342/1/373
f 314/1/345 344/1/375 343/1/374
f 313/1/344 314/1/345 343/1/374
f 315/1/346 345/1/376 344/1/375
f 314/1/345 315/1/346 344/1/375
f 316/1/347 346/1/377 345/1/376
f 315/1/346 316/1/347 345/1/376
f 317/1/348 347/1/378 346/1/377
f 316/1/347 317/1/348 346/1/377
f 318/1/349 348/1/379 347/1/378
f 317/1/348 318/1/349 347/1/378
f 319/1/350 349/1/380 348/1/379
f 318/1/349 319/1/350 348/1/379
f 320/1/351 350/1/381 349/1/380
f 319/1/350 320/1/351 349/1/380
f 321/1/352 351/1/382 350/1/381
f 320/1/351 321/1/352 350/1/381
f 322/1/353 352/1/383 351/1/382
f 321/1/352 322/1/353 351/1/382
f 323/1/354 353/1/384 352/1/383
f 322/1/353 323/1/354 352/1/383
f 324/1/355 354/1/385 353/1/384
f 323/1/354 324/1/355 353/1/384
f 355/1/386 354/1/385 324/1/355
f 325/1/356 355/1/386 324/1/355
f 356/1/387 355/1/386 325/1/356
f 326/1/357 356/1/387 325/1/356
f 357/1/388 356/1/387 326/1/357
f 327/1/358 357/1/388 326/1/357
f 358/1/389 357/1/388 327/1/358
f 328/1/359 358/1/389 327/1/358
f 359/1/390 358/1/389 328/1/359
f 329/1/360 359/1/390 328/1/359
f 360/1/391 359/1/390 329/1/360
f 330/1/361 360/1/391 329/1/360
f 361/1/392 360/1/391 330/1/361
f 331/1/362 361/1/392 330/1/361
f 332/1/363 361/1/392 331/1/362
f 302/1/333 332/1/363 331/1/362
f 394/1/393 364/1/33 363/1/34
f 393/1/394 394/1/393 363/1/34
f 395/1/395 365/1/35 364/1/33
f 394/1/393 395/1/395 364/1/33
f 396/1/396 366/1/36 365/1/35
f 395/1/395 396/1/396 365/1/35
f 397/1/397 367/1/37 366/1/36
f 396/1/396 397/1/397 366/1/36
f 398/1/398 368/1/38 367/1/37
f 397/1/397 398/1/398 367/1/37
f 399/1/399 369/1/39 368/1/38
f 398/1/398 399/1/399 368/1/38
f 400/1/400 370/1/40 369/1/39
f 399/1/399 400/1/400 369/1/39
f 401/1/401 371/1/41 370/1/40
f 400/1/400 401/1/401 370/1/40
f 401/1/401 402/1/402 372/1/42
f 371/1/41 401/1/401 372/1/42
f 402/1/402 403/1/403 373/1/43
f 372/1/42 402/1/402 373/1/43
f 403/1/403 404/1/404 374/1/44
f 373/1/43 403/1/403 374/1/44
f 404/1/404 405/1/405 375/1/45
f 374/1/44 404/1/404 375/1/45
f 405/1/405 406/1/406 376/1/46
f 375/1/45 405/1/405 376/1/46
f 406/1/406 407/1/407 377/1/47
f 376/1/46 406/1/406 377/1/47
f 407/1/407 408/1/408 378/1/48
f 377/1/47 407/1/407 378/1/48
f 408/1/408 409/1/409 379/1/49
f 378/1/48 408/1/408 379/1/49
f 409/1/409 410/1/410 380/1/50
f 379/1/49 409/1/409 380/1/50
f 410/1/410 411/1/411 381/1/51
f 380/1/50 410/1/410 381/1/51
f 411/1/411 412/1/412 382/1/52
f 381/1/51 411/1/411 382/1/52
f 412/1/412 413/1/413 383/1/53
f 382/1/52 412/1/412 383/1/53
f 413/1/413 414/1/414 384/1/54
f 383/1/53 413/1/413 384/1/54
f 414/1/414 415/1/415 385/1/55
f 384/1/54 414/1/414 385/1/55
f 416/1/416 386/1/56 385/1/55
f 415/1/415 416/1/416 385/1/55
f 417/1/417 387/1/57 386/1/56
f 416/1/416 417/1/417 386/1/56
f 418/1/418 388/1/58 387/1/57
f 417/1/417 418/1/418 387/1/57
f 419/1/419 389/1/59 388/1/58
f 418/1/418 419/1/419 388/1/58
f 420/1/420 390/1/60 389/1/59
f 419/1/419 420/1/420 389/1/59
f 421/1/421 391/1/61 390/1/60
f 420/1/420 421/1/421 390/1/60
f 422/1/422 392/1/62 391/1/61
f 421/1/421 422/1/422 391/1/61
f 393/1/394 363/1/34 392/1/62
f 422/1/422 393/1/394 392/1/62
f 424/1/423 394/1/393 393/1/394
f 423/1/424 424/1/423 393/1/394
f 425/1/425 395/1/395 394/1/393
f 424/1/423 425/1/425 394/1/393
f 426/1/426 396/1/396 395/1/395
f 425/1/425 426/1/426 395/1/395
f 427/1/427 397/1/397 396/1/396
f 426/1/426 427/1/427 396/1/396
f 428/1/428 398/1/398 397/1/397
f 427/1/427 428/1/428 397/1/397
f 429/1/429 399/1/399 398/1/398
f 428/1/428 429/1/429 398/1/398
f 429/1/429 430/1/430 400/1/400
f 399/1/399 429/1/429 400/1/400
f 430/1/430 431/1/431 401/1/401
f 400/1/400 430/1/430 401/1/401
f 432/1/432 402/1/402 401/1/401
f 431/1/431 432/1/432 401/1/401
f 432/1/432 433/1/433 403/1/403
f 402/1/402 432/1/432 403/1/403
f 433/1/433 434/1/434 404/1/404
f 403/1/403 433/1/433 404/1/404
f 434/1/434 435/1/435 405/1/405
f 404/1/404 434/1/434 405/1/405
f 435/1/435 436/1/436 406/1/406
f 405/1/405 435/1/435 406/1/406
f 436/1/436 437/1/437 407/1/407
f 406/1/406 436/1/436 407/1/407
f 437/1/437 438/1/438 408/1/408
f 407/1/407 437/1/437 408/1/408
f 438/1/438 439/1/439 409/1/409
f 408/1/408 438/1/438 409/1/409
f 439/1/439 440/1/440 410/1/410
f 409/1/409 439/1/439 410/1/410
f 440/1/440 441/1/441 411/1/411
f 410/1/410 440/1/440 411/1/411
f 441/1/441 442/1/442 412/1/412
f 411/1/411 441/1/441 412/1/412
f 442/1/442 443/1/443 413/1/413
f 412/1/412 442/1/442 413/1/413
f 443/1/443 444/1/444 414/1/414
f 413/1/413 443/1/443 414/1/414
f 444/1/444 445/1/445 415/1/415
f 414/1/414 444/1/444 415/1/415
f 446/1/446 416/1/416 415/1/415
f 445/1/445 446/1/446 415/1/415
f 447/1/447 417/1/417 416/1/416
f 446/1/446 447/1/447 416/1/416
f 448/1/448 418/1/418 417/1/417
f 447/1/447 448/1/448 417/1/417
f 449/1/449 419/1/419 418/1/418
f 448/1/448 449/1/449 418/1/418
f 450/1/450 420/1/420 419/1/419
f 449/1/449 450/1/450 419/1/419
f 451/1/451 421/1/421 420/1/420
f 450/1/450 451/1/451 420/1/420
f 452/1/452 422/1/422 421/1/421
f 451/1/451 452/1/452 421/1/421
f 423/1/424 393/1/394 422/1/422
f 452/1/452 423/1/424 422/1/422
f 453/1/454 454/1/453 424/1/423
f 423/1/424 453/1/454 424/1/423
f 454/1/453 455/1/455 425/1/425
f 424/1/423 454/1/453 425/1/425
f 455/1/455 456/1/456 426/1/426
f 425/1/425 455/1/455 426/1/426
f 456/1/456 457/1/457 427/1/427
f 426/1/426 456/1/456 427/1/427
f 457/1/457 458/1/458 428/1/428
f 427/1/427 457/1/457 428/1/428
f 458/1/458 459/1/459 429/1/429
f 428/1/428 458/1/458 429/1/429
f 459/1/459 460/1/460 430/1/430
f 429/1/429 459/1/459 430/1/430
f 461/1/461 431/1/431 430/1/430
f 460/1/460 461/1/461 430/1/430
f 462/1/462 432/1/432 431/1/431
f 461/1/461 462/1/462 431/1/431
f 463/1/463 433/1/433 432/1/432
f 462/1/462 463/1/463 432/1/432
f 464/1/464 434/1/434 433/1/433
f 463/1/463 464/1/464 433/1/433
f 465/1/465 435/1/435 434/1/434
f 464/1/464 465/1/465 434/1/434
f 466/1/466 436/1/436 435/1/435
f 465/1/465 466/1/466 435/1/435
f 467/1/467 437/1/437 436/1/436
f 466/1/466 467/1/467 436/1/436
f 468/1/468 438/1/438 437/1/437
f 467/1/467 468/1/468 437/1/437
f 469/1/469 439/1/439 438/1/438
f 468/1/468 469/1/469 438/1/438
f 470/1/470 440/1/440 439/1/439
f 469/1/469 470/1/470 439/1/439
f 471/1/471 441/1/441 440/1/440
f 470/1/470 471/1/471 440/1/440
f 472/1/472 442/1/442 441/1/441
f 471/1/471 472/1/472 441/1/441
f 473/1/473 443/1/443 442/1/442
f 472/1/472 473/1/473 442/1/442
f 474/1/474 444/1/444 443/1/443
f 473/1/473 474/1/474 443/1/443
f 475/1/475 445/1/445 444/1/444
f 474/1/474 475/1/475 444/1/444
f 475/1/475 476/1/476 446/1/446
f 445/1/445 475/1/475 446/1/446
f 476/1/476 477/1/477 447/1/447
f 446/1/446 476/1/476 447/1/447
f 477/1/477 478/1/478 448/1/448
f 447/1/447 477/1/477 448/1/448
f 478/1/478 479/1/479 449/1/449
f 448/1/448 478/1/478 449/1/449
f 479/1/479 480/1/480 450/1/450
f 449/1/449 479/1/479 450/1/450
f 480/1/480 481/1/481 451/1/451
f 450/1/450 480/1/480 451/1/451
f 481/1/481 482/1/482 452/1/452
f 451/1/451 481/1/481 452/1/452
f 482/1/482 453/1/454 423/1/424
f 452/1/452 482/1/482 423/1/424
f 484/1/483 454/1/453 453/1/454
f 483/1/484 484/1/483 453/1/454
f 485/1/485 455/1/455 454/1/453
f 484/1/483 485/1/485 454/1/453
f 486/1/486 456/1/456 455/1/455
f 485/1/485 486/1/486 455/1/455
f 487/1/487 457/1/457 456/1/456
f 486/1/486 487/1/487 456/1/456
f 488/1/488 458/1/458 457/1/457
f 487/1/487 488/1/488 457/1/457
f 489/1/489 459/1/459 458/1/458
f 488/1/488 489/1/489 458/1/458
f 490/1/490 460/1/460 459/1/459
f 489/1/489 490/1/490 459/1/459
f 491/1/491 461/1/461 460/1/460
f 490/1/490 491/1/491 460/1/460
f 491/1/491 492/1/492 462/1/462
f 461/1/461 491/1/491 462/1/462
f 492/1/492 493/1/493 463/1/463
f 462/1/462 492/1/492 463/1/463
f 493/1/493 494/1/494 464/1/464
f 463/1/463 493/1/493 464/1/464
f 494/1/494 495/1/495 465/1/465
f 464/1/464 494/1/494 465/1/465
f 495/1/495 496/1/496 466/1/466
f 465/1/465 495/1/495 466/1/466
f 496/1/496 497/1/497 467/1/467
f 466/1/466 496/1/496 467/1/467
f 497/1/497 498/1/498 468/1/468
f 467/1/467 497/1/497 468/1/468
f 498/1/498 499/1/499 469/1/469
f 468/1/468 498/1/498 469/1/469
f 499/1/499 500/1/500 470/1/470
f 469/1/469 499/1/499 470/1/470
f 500/1/500 501/1/501 471/1/471
f 470/1/470 500/1/500 471/1/471
f 501/1/501 502/1/502 472/1/472
f 471/1/471 501/1/501 472/1/472
f 502/1/502 503/1/503 473/1/473
f 472/1/472 502/1/502 473/1/473
f 503/1/503 504/1/504 474/1/474
f 473/1/473 503/1/503 474/1/474
f 504/1/504 505/1/505 475/1/475
f 474/1/474 504/1/504 475/1/475
f 505/1/505 506/1/506 476/1/476
f 475/1/475 505/1/505 476/1/476
f 507/1/507 477/1/477 476/1/476
f 506/1/506 507/1/507 476/1/476
f 508/1/508 478/1/478 477/1/477
f 507/1/507 508/1/508 477/1/477
f 509/1/509 479/1/479 478/1/478
f 508/1/508 509/1/509 478/1/478
f 510/1/510 480/1/480 479/1/479
f 509/1/509 510/1/510 479/1/479
f 511/1/511 481/1/481 480/1/480
f 510/1/510 511/1/511 480/1/480
f 512/1/512 482/1/482 481/1/481
f 511/1/511 512/1/512 481/1/481
f 483/1/484 453/1/454 482/1/482
f 512/1/512 483/1/484 482/1/482
f 514/1/513 484/1/483 483/1/484
f 513/1/514 514/1/513 483/1/484
f 515/1/515 485/1/485 484/1/483
f 514/1/513 515/1/515 484/1/483
f 516/1/516 486/1/486 485/1/485
f 515/1/515 516/1/516 485/1/485
f 517/1/517 487/1/487 486/1/486
f 516/1/516 517/1/517 486/1/486
f 518/1/518 488/1/488 487/1/487
f 517/1/517 518/1/518 487/1/487
f 519/1/519 489/1/489 488/1/488
f 518/1/518 519/1/519 488/1/488
f 520/1/520 490/1/490 489/1/489
f 519/1/519 520/1/520 489/1/489
f 521/1/521 491/1/491 490/1/490
f 520/1/520 521/1/521 490/1/490
f 521/1/521 522/1/522 492/1/492
f 491/1/491 521/1/521 492/1/492
f 522/1/522 523/1/523 493/1/493
f 492/1/492 522/1/522 493/1/493
f 523/1/523 524/1/524 494/1/494
f 493/1/493 523/1/523 494/1/494
f 524/1/524 525/1/525 495/1/495
f 494/1/494 524/1/524 495/1/495
f 525/1/525 526/1/526 496/1/496
f 495/1/495 525/1/525 496/1/496
f 526/1/526 527/1/527 497/1/497
f 496/1/496 526/1/526 497/1/497
f 527/1/527 528/1/528 498/1/498
f 497/1/497 527/1/527 498/1/498
f 528/1/528 529/1/529 499/1/499
f 498/1/498 528/1/528 499/1/499
f 529/1/529 530/1/530 500/1/500
f 499/1/499 529/1/529 500/1/500
f 530/1/530 531/1/531 501/1/501
f 500/1/500 530/1/530 501/1/501
f 531/1/531 532/1/532 502/1/502
f 501/1/501 531/1/531 502/1/502
f 532/1/532 533/1/533 503/1/503
f 502/1/502 532/1/532 503/1/503
f 533/1/533 534/1/534 504/1/504
f 503/1/503 533/1/533 504/1/504
f 534/1/534 535/1/535 505/1/505
f 504/1/504 534/1/534 505/1/505
f 536/1/536 506/1/506 505/1/505
f 535/1/535 536/1/536 505/1/505
f 537/1/537 507/1/507 506/1/506
f 536/1/536 537/1/537 506/1/506
f 538/1/538 508/1/508 507/1/507
f 537/1/537 538/1/538 507/1/507
f 539/1/539 509/1/509 508/1/508
f 538/1/538 539/1/539 508/1/508
f 540/1/540 510/1/510 509/1/509
f 539/1/539 540/1/540 509/1/509
f 541/1/541 511/1/511 510/1/510
f 540/1/540 541/1/541 510/1/510
f 542/1/542 512/1/512 511/1/511
f 541/1/541 542/1/542 511/1/511
f 513/1/514 483/1/484 512/1/512
f 542/1/542 513/1/514 512/1/512
f 544/1/543 514/1/513 513/1/514
f 543/1/544 544/1/543 513/1/514
f 545/1/545 515/1/515 514/1/513
f 544/1/543 545/1/545 514/1/513
f 546/1/546 516/1/516 515/1/515
f 545/1/545 546/1/546 515/1/515
f 547/1/547 517/1/517 516/1/516
f 546/1/546 547/1/547 516/1/516
f 548/1/548 518/1/518 517/1/517
f 547/1/547 548/1/548 517/1/517
f 549/1/549 519/1/519 518/1/518
f 548/1/548 549/1/549 518/1/518
f 550/1/550 520/1/520 519/1/519
f 549/1/549 550/1/550 519/1/519
f 551/1/551 521/1/521 520/1/520
f 550/1/550 551/1/551 520/1/520
f 551/1/551 552/1/552 522/1/522
f 521/1/521 551/1/551 522/1/522
f 552/1/552 553/1/553 523/1/523
f 522/1/522 552/1/552 523/1/523
f 553/1/553 554/1/554 524/1/524
f 523/1/523 553/1/553 524/1/524
f 554/1/554 555/1/555 525/1/525
f 524/1/524 554/1/554 525/1/525
f 555/1/555 556/1/556 526/1/526
f 525/1/525 555/1/555 526/1/526
f 556/1/556 557/1/557 527/1/527
f 526/1/526 556/1/556 527/1/527
f 557/1/557 558/1/558 528/1/528
f 527/1/527 557/1/557 528/1/528
f 558/1/558 559/1/559 529/1/529
f 528/1/528 558/1/558 529/1/529
f 559/1/559 560/1/560 530/1/530
f 529/1/529 559/1/559 530/1/530
f 560/1/560 561/1/561 531/1/531
f 530/1/530 560/1/560 531/1/531
f 561/1/561 562/1/562 532/1/532
f 531/1/531 561/1/561 532/1/532
f 562/1/562 563/1/563 533/1/533
f 532/1/532 562/1/562 533/1/533
f 563/1/563 564/1/564 534/1/534
f 533/1/533 563/1/563 534/1/534
f 564/1/564 565/1/565 535/1/535
f 534/1/534 564/1/564 535/1/535
f 566/1/566 536/1/536 535/1/535
f 565/1/565 566/1/566 535/1/535
f 567/1/567 537/1/537 536/1/536
f 566/1/566 567/1/567 536/1/536
f 568/1/568 538/1/538 537/1/537
f 567/1/567 568/1/568 537/1/537
f 569/1/569 539/1/539 538/1/538
f 568/1/568 569/1/569 538/1/538
f 570/1/570 540/1/540 539/1/539
f 569/1/569 570/1/570 539/1/539
f 571/1/571 541/1/541 540/1/540
f 570/1/570 571/1/571 540/1/540
f 572/1/572 542/1/542 541/1/541
f 571/1/571 572/1/572 541/1/541
f 543/1/544 513/1/514 542/1/542
f 572/1/572 543/1/544 542/1/542
f 574/1/573 544/1/543 543/1/544
f 573/1/574 574/1/573 543/1/544
f 575/1/575 545/1/545 544/1/543
f 574/1/573 575/1/575 544/1/543
f 576/1/576 546/1/546 545/1/545
f 575/1/575 576/1/576 545/1/545
f 577/1/577 547/1/547 546/1/546
f 576/1/576 577/1/577 546/1/546
f 578/1/578 548/1/548 547/1/547
f 577/1/577 578/1/578 547/1/547
f 579/1/579 549/1/549 548/1/548
f 578/1/578 579/1/579 548/1/548
f 580/1/580 550/1/550 549/1/549
f 579/1/579 580/1/580 549/1/549
f 580/1/580 581/1/581 551/1/551
f 550/1/550 580/1/580 551/1/551
f 581/1/581 582/1/582 552/1/552
f 551/1/551 581/1/581 552/1/552
f 582/1/582 583/1/583 553/1/553
f 552/1/552 582/1/582 553/1/553
f 583/1/583 584/1/584 554/1/554
f 553/1/553 583/1/583 554/1/554
f 584/1/584 585/1/585 555/1/555
f 554/1/554 584/1/584 555/1/555
f 585/1/585 586/1/586 556/1/556
f 555/1/555 585/1/585 556/1/556
f 586/1/586 587/1/587 557/1/557
f 556/1/556 586/1/586 557/1/557
f 587/1/587 588/1/588 558/1/558
f 557/1/557 587/1/587 558/1/558
f 588/1/588 589/1/589 559/1/559
f 558/1/558 588/1/588 559/1/559
f 589/1/589 590/1/590 560/1/560
f 559/1/559 589/1/589 560/1/560
f 590/1/590 591/1/591 561/1/561
f 560/1/560 590/1/590 561/1/561
f 591/1/591 592/1/592 562/1/562
f 561/1/561 591/1/591 562/1/562
f 592/1/592 593/1/593 563/1/563
f 562/1/562 592/1/592 563/1/563
f 593/1/593 594/1/594 564/1/564
f 563/1/563 593/1/593 564/1/564
f 594/1/594 595/1/595 565/1/565
f 564/1/564 594/1/594 565/1/565
f 596/1/596 566/1/566 565/1/565
f 595/1/595 596/1/596 565/1/565
f 597/1/597 567/1/567 566/1/566
f 596/1/596 597/1/597 566/1/566
f 598/1/598 568/1/568 567/1/567
f 597/1/597 598/1/598 567/1/567
f 599/1/599 569/1/569 568/1/568
f 598/1/598 599/1/599 568/1/568
f 600/1/600 570/1/570 569/1/569
f 599/1/599 600/1/600 569/1/569
f 601/1/601 571/1/571 570/1/570
f 600/1/600 601/1/601 570/1/570
f 602/1/602 572/1/572 571/1/571
f 601/1/601 602/1/602 571/1/571
f 573/1/574 543/1/544 572/1/572
f 602/1/602 573/1/574 572/1/572
f 604/1/603 574/1/573 573/1/574
f 603/1/604 604/1/603 573/1/574
f 605/1/605 575/1/575 574/1/573
f 604/1/603 605/1/605 574/1/573
f 606/1/606 576/1/576 575/1/575
f 605/1/605 606/1/606 575/1/575
f 607/1/607 577/1/577 576/1/576
f 606/1/606 607/1/607 576/1/576
f 608/1/608 578/1/578 577/1/577
f 607/1/607 608/1/608 577/1/577
f 609/1/609 579/1/579 578/1/578
f 608/1/608 609/1/609 578/1/578
f 610/1/610 580/1/580 579/1/579
f 609/1/609 610/1/610 579/1/579
f 611/1/611 581/1/581 580/1/580
f 610/1/610 611/1/611 580/1/580
f 611/1/611 612/1/612 582/1/582
f 581/1/581 611/1/611 582/1/582
f 612/1/612 613/1/613 583/1/583
f 582/1/582 612/1/612 583/1/583
f 613/1/613 614/1/614 584/1/584
f 583/1/583 613/1/613 584/1/584
f 614/1/614 615/1/615 585/1/585
f 584/1/584 614/1/614 585/1/585
f 615/1/615 616/1/616 586/1/586
f 585/1/585 615/1/615 586/1/586
f 616/1/616 617/1/617 587/1/587
f 586/1/586 616/1/616 587/1/587
f 617/1/617 618/1/618 588/1/588
f 587/1/587 617/1/617 588/1/588
f 618/1/618 619/1/619 589/1/589
f 588/1/588 618/1/618 589/1/589
f 619/1/619 620/1/620 590/1/590
f 589/1/589 619/1/619 590/1/590
f 620/1/620 621/1/621 591/1/591
f 590/1/590 620/1/620 591/1/591
f 621/1/621 622/1/622 592/1/592
f 591/1/591 621/1/621 592/1/592
f 622/1/622 623/1/623 593/1/593
f 592/1/592 622/1/622 593/1/593
f 623/1/623 624/1/624 594/1/594
f 593/1/593 623/1/623 594/1/594
f 624/1/624 625/1/625 595/1/595
f 594/1/594 624/1/624 595/1/595
f 625/1/625 626/1/626 596/1/596
f 595/1/595 625/1/625 596/1/596
f 627/1/627 597/1/597 596/1/596
f 626/1/626 627/1/627 596/1/596
f 628/1/628 598/1/598 597/1/597
f 627/1/627 628/1/628 597/1/597
f 629/1/629 599/1/599 598/1/598
f 628/1/628 629/1/629 598/1/598
f 630/1/630 600/1/600 599/1/599
f 629/1/629 630/1/630 599/1/599
f 631/1/631 601/1/601 600/1/600
f 630/1/630 631/1/631 600/1/600
f 632/1/632 602/1/602 601/1/601
f 631/1/631 632/1/632 601/1/601
f 603/1/604 573/1/574 602/1/602
f 632/1/632 603/1/604 602/1/602
f 634/1/633 604/1/603 603/1/604
f 633/1/634 634/1/633 603/1/604
f 635/1/635 605/1/605 604/1/603
f 634/1/633 635/1/635 604/1/603
f 636/1/636 606/1/606 605/1/605
f 635/1/635 636/1/636 605/1/605
f 637/1/637 607/1/607 606/1/606
f 636/1/636 637/1/637 606/1/606
f 638/1/638 608/1/608 607/1/607
f 637/1/637 638/1/638 607/1/607
f 639/1/639 609/1/609 608/1/608
f 638/1/638 639/1/639 608/1/608
f 640/1/640 610/1/610 609/1/609
f 639/1/639 640/1/640 609/1/609
f 641/1/641 611/1/611 610/1/610
f 640/1/640 641/1/641 610/1/610
f 641/1/641 642/1/642 612/1/612
f 611/1/611 641/1/641 612/1/612
f 642/1/642 643/1/643 613/1/613
f 612/1/612 642/1/642 613/1/613
f 643/1/643 644/1/644 614/1/614
f 613/1/613 643/1/643 614/1/614
f 644/1/644 645/1/645 615/1/615
f 614/1/614 644/1/644 615/1/615
f 645/1/645 646/1/646 616/1/616
f 615/1/615 645/1/645 616/1/616
f 646/1/646 647/1/647 617/1/617
f 616/1/616 646/1/646 617/1/617
f 647/1/647 648/1/648 618/1/618
f 617/1/617 647/1/647 618/1/618
f 648/1/648 649/1/649 619/1/619
f 618/1/618 648/1/648 619/1/619
f 649/1/649 650/1/650 620/1/620
f 619/1/619 649/1/649 620/1/620
f 650/1/650 651/1/651 621/1/621
f 620/1/620 650/1/650 621/1/621
f 651/1/651 652/1/652 622/1/622
f 621/1/621 651/1/651 622/1/622
f 652/1/652 653/1/653 623/1/623
f 622/1/622 652/1/652 623/1/623
f 653/1/653 654/1/654 624/1/624
f 623/1/623 653/1/653 624/1/624
f 654/1/654 655/1/655 625/1/625
f 624/1/624 654/1/654 625/1/625
f 656/1/656 626/1/626 625/1/625
f 655/1/655 656/1/656 625/1/625
f 657/1/657 627/1/627 626/1/626
f 656/1/656 657/1/657 626/1/626
f 658/1/658 628/1/628 627/1/627
f 657/1/657 658/1/658 627/1/627
f 659/1/659 629/1/629 628/1/628
f 658/1/658 659/1/659 628/1/628
f 660/1/660 630/1/630 629/1/629
f 659/1/659 660/1/660 629/1/629
f 661/1/661 631/1/631 630/1/630
f 660/1/660 661/1/661 630/1/630
f 662/1/662 632/1/632 631/1/631
f 661/1/661 662/1/662 631/1/631
f 633/1/634 603/1/604 632/1/632
f 662/1/662 633/1/634 632/1/632
f 663/1/664 664/1/663 634/1/633
f 633/1/634 663/1/664 634/1/633
f 664/1/663 665/1/665 635/1/635
f 634/1/633 664/1/663 635/1/635
f 665/1/665 666/1/666 636/1/636
f 635/1/635 665/1/665 636/1/636
f 666/1/666 667/1/667 637/1/637
f 636/1/636 666/1/666 637/1/637
f 667/1/667 668/1/668 638/1/638
f 637/1/637 667/1/667 638/1/638
f 668/1/668 669/1/669 639/1/639
f 638/1/638 668/1/668 639/1/639
f 669/1/669 670/1/670 640/1/640
f 639/1/639 669/1/669 640/1/640
f 670/1/670 671/1/671 641/1/641
f 640/1/640 670/1/670 641/1/641
f 672/1/672 642/1/642 641/1/641
f 671/1/671 672/1/672 641/1/641
f 673/1/673 643/1/643 642/1/642
f 672/1/672 673/1/673 642/1/642
f 674/1/674 644/1/644 643/1/643
f 673/1/673 674/1/674 643/1/643
f 675/1/675 645/1/645 644/1/644
f 674/1/674 675/1/675 644/1/644
f 676/1/676 646/1/646 645/1/645
f 675/1/675 676/1/676 645/1/645
f 677/1/677 647/1/647 646/1/646
f 676/1/676 677/1/677 646/1/646
f 678/1/678 648/1/648 647/1/647
f 677/1/677 678/1/678 647/1/647
f 679/1/679 649/1/649 648/1/648
f 678/1/678 679/1/679 648/1/648
f 680/1/680 650/1/650 649/1/649
f 679/1/679 680/1/680 649/1/649
f 681/1/681 651/1/651 650/1/650
f 680/1/680 681/1/681 650/1/650
f 682/1/682 652/1/652 651/1/651
f 681/1/681 682/1/682 651/1/651
f 683/1/683 653/1/653 652/1/652
f 682/1/682 683/1/683 652/1/652
f 684/1/684 654/1/654 653/1/653
f 683/1/683 684/1/684 653/1/653
f 685/1/685 655/1/655 654/1/654
f 684/1/684 685/1/685 654/1/654
f 686/1/686 656/1/656 655/1/655
f 685/1/685 686/1/686 655/1/655
f 686/1/686 687/1/687 657/1/657
f 656/1/656 686/1/686 657/1/657
f 687/1/687 688/1/688 658/1/658
f 657/1/657 687/1/687 658/1/658
f 688/1/688 689/1/689 659/1/659
f 658/1/658 688/1/688 659/1/659
f 689/1/689 690/1/690 660/1/660
f 659/1/659 689/1/689 660/1/660
f 690/1/690 691/1/691 661/1/661
f 660/1/660 690/1/690 661/1/661
f 691/1/691 692/1/692 662/1/662
f 661/1/661 691/1/691 662/1/662
f 692/1/692 663/1/664 633/1/634
f 662/1/662 692/1/692 633/1/634
f 694/1/693 664/1/663 663/1/664
f 693/1/694 694/1/693 663/1/664
f 695/1/695 665/1/665 664/1/663
f 694/1/693 695/1/695 664/1/663
f 696/1/696 666/1/666 665/1/665
f 695/1/695 696/1/696 665/1/665
f 697/1/697 667/1/667 666/1/666
f 696/1/696 697/1/697 666/1/666
f 698/1/698 668/1/668 667/1/667
f 697/1/697 698/1/698 667/1/667
f 699/1/699 669/1/669 668/1/668
f 698/1/698 699/1/699 668/1/668
f 700/1/700 670/1/670 669/1/669
f 699/1/699 700/1/700 669/1/669
f 701/1/701 671/1/671 670/1/670
f 700/1/700 701/1/701 670/1/670
f 701/1/701 702/1/702 672/1/672
f 671/1/671 701/1/701 672/1/672
f 702/1/702 703/1/703 673/1/673
f 672/1/672 702/1/702 673/1/673
f 703/1/703 704/1/704 674/1/674
f 673/1/673 703/1/703 674/1/674
f 704/1/704 705/1/705 675/1/675
f 674/1/674 704/1/704 675/1/675
f 705/1/705 706/1/706 676/1/676
f 675/1/675 705/1/705 676/1/676
f 706/1/706 707/1/707 677/1/677
f 676/1/676 706/1/706 677/1/677
f 707/1/707 708/1/708 678/1/678
f 677/1/677 707/1/707 678/1/678
f 708/1/708 709/1/709 679/1/679
f 678/1/678 708/1/708 679/1/679
f 709/1/709 710/1/710 680/1/680
f 679/1/679 709/1/709 680/1/680
f 710/1/710 711/1/711 681/1/681
f 680/1/680 710/1/710 681/1/681
f 711/1/711 712/1/712 682/1/682
f 681/1/681 711/1/711 682/1/682
f 712/1/712 713/1/713 683/1/683
f 682/1/682 712/1/712 683/1/683
f 713/1/713 714/1/714 684/1/684
f 683/1/683 713/1/713 684/1/684
f 714/1/714 715/1/715 685/1/685
f 684/1/684 714/1/714 685/1/685
f 716/1/716 686/1/686 685/1/685
f 715/1/715 716/1/716 685/1/685
f 717/1/717 687/1/687 686/1/686
f 716/1/716 717/1/717 686/1/686
f 718/1/718 688/1/688 687/1/687
f 717/1/717 718/1/718 687/1/687
f 719/1/719 689/1/689 688/1/688
f 718/1/718 719/1/719 688/1/688
f 720/1/720 690/1/690 689/1/689
f 719/1/719 720/1/720 689/1/689
f 721/1/721 691/1/691 690/1/690
f 720/1/720 721/1/721 690/1/690
f 722/1/722 692/1/692 691/1/691
f 721/1/721 722/1/722 691/1/691
f 693/1/694 663/1/664 692/1/692
f 722/1/722 693/1/694 692/1/692
# 1380 elements

